<?xml version="1.0" encoding="UTF-8"?>
<svg id="Layer_2" data-name="Layer 2" xmlns="http://www.w3.org/2000/svg" viewBox="0 0 77.56 70.34">
  <defs>
    <style>
      .cls-1 {
        fill: none;
        stroke: #000;
        stroke-miterlimit: 10;
        stroke-width: 1.82px;
      }

      .cls-2 {
        fill: #fcfcfb;
      }

      .cls-2, .cls-3, .cls-4, .cls-5, .cls-6 {
        stroke-width: 0px;
      }

      .cls-3 {
        fill: #000;
      }

      .cls-4 {
        fill: #faf9f6;
      }

      .cls-5 {
        fill: #636261;
      }

      .cls-6 {
        fill: #8490a3;
      }
    </style>
  </defs>
  <g id="Layer_1-2" data-name="Layer 1">
    <g>
      <path class="cls-2" d="M18.68,16.06c1.69-4.35,5.86-7.16,10.56-6.8s8.65,3.95,12.12,6.83c1.54,1.28,3.08,2.58,4.7,3.77.86.65,1.74,1.26,2.66,1.83,1.71,1.6,2.97.86,3.77-2.22-.11-.4-5.57-2.52-6.39-3.01-1.74-1.04-3.35-2.28-5.31-2.9-4.98-1.58-18.44.81-18.46,7.77-.03,9.19,14.63,5.2,19.79,4.72l-3.21-7.75c-1.65,1.29-3.36,1.86-5.36,2.3-5.71,1.26-3.29,10.02,2.41,8.76,3.66-.81,6.44-2.35,9.37-4.64s.54-8.11-3.21-7.75c-2.39.23-4.77.45-7.16.68-.85.08-4.89.98-5.51.55l2.09,2.71-.28-.78-.46,3.5c.43-.68,5.59-1.32,6.62-1.21,2.35.26,4.18,2.03,6.25,3.14,3.35,1.78,7.87,4.02,11.74,2.89,3.32-.98,5.37-4.11,4.77-7.55-.75-4.32-5.03-5.74-8.21-7.92C44.64,7.95,38.81.65,29.24.18,20.23-.26,13.07,5.56,9.92,13.65c-2.12,5.45,6.66,7.81,8.76,2.41h0Z"/>
      <path class="cls-3" d="M59.61,59.48c-1.04.78-2.76.71-3.01,2.46-2.7,1.98-5.92,2.11-9.04,2.35-2.25.18-4.36.49-6.32,1.65-3.34,1.97-7.23,1.45-10.83,2.23-6.23,1.36-12.64,1.71-19.02,2.14-3.67.24-6.67-1.05-9.08-3.79.26-.27.51-.54.77-.81.29.12.57.23.86.35,1.54,1.94,3.5,2.93,6.02,2.6,1.82.28,3.64.26,5.45-.08,1.09.2,2.1,0,3.04-.58,3.29.23,6.47-.4,9.66-1.09.37.18.81.24,1.01-.14.28-.54-.17-.86-.57-1.14-.37-.84-.74-1.68-1.12-2.51.06-.5-.1-.91-.51-1.21l-.67-1.81c.05-.48.03-.93-.39-1.26-.92-3.38-1.76-6.78-2.78-10.12-.52-1.69-.47-3.12.78-4.43.51-.34,1.02-.67,1.53-1.01h.2s.12-.15.12-.15c.81-.42,1.61-.84,2.42-1.26.66-.21,1.34-.38,1.98-.64,6.09-2.37,12.39-3.96,18.8-5.16,2.91-.55,5.03.16,6.36,3.02,1.94,4.17,2.73,8.59,3.18,13.1-.97.92-.77,1.52.5,1.84.02.2.03.41.05.61-.33.92-1.29,1.99.55,2.42.02.81.03,1.61.05,2.42Z"/>
      <path class="cls-1" d="M15.31,6.03c.25.26.5.51.75.77-1.02,1.08-2.47,1.75-3.04,3.25-2.65,2.1-3.88,4.79-3.1,8.15.27,1.16-.29,1.91-.74,2.78-.25.46-.51.92-.76,1.38-.08.44-.16.87-.24,1.31-.51,1.06-.65,2.11.09,3.13-.11.5.06.84.53,1.05l-.03.24c-1.4.17-.67,1.58-1.36,2.32-2.69,2.92-3.73,6.5-3.32,10.47,0,.31,0,.63,0,.94.01.42.02.84.03,1.26-.26.85-.04,1.67.19,2.48-.03.19-.07.38-.1.57l-.02-.07c-2.6-3.03-1.68-6.56-1.27-9.95.18-1.45.85-2.9,1.57-4.2,1.22-2.25,1.38-4.71,1.99-7.08,1.03-4.03,1.56-8.13,2.44-12.17,1.73-2.59,3.6-5.04,6.39-6.61Z"/>
      <path class="cls-1" d="M.99,63.7c.07-5.28-.78-10.67,1.84-15.66.25.25.5.49.75.74-.1.53-.19,1.05-.29,1.58-1.74,4.33-.67,8.93-1.28,13.37-.34,0-.68-.02-1.01-.03Z"/>
      <path class="cls-6" d="M3.57,48.78c-.25-.25-.5-.49-.75-.74-.23-1.14.82-1.39,1.38-1.99,0,0,.02.07.02.07.04.6.09,1.2.13,1.81-.26.28-.52.57-.78.85Z"/>
      <path class="cls-5" d="M.99,63.7c.34,0,.68.02,1.01.03.36.66.72,1.32,1.08,1.98-.26.27-.51.54-.77.81-.81-.76-1.47-1.6-1.33-2.82Z"/>
      <path class="cls-2" d="M3.08,65.71c-.36-.66-.72-1.32-1.08-1.98.61-4.44-.46-9.04,1.28-13.37,1.81,1.15,1.32-1.03,1.95-1.52.64-.5-.38-.75-.88-.91-.04-.6-.09-1.2-.13-1.81.03-.19.07-.38.1-.57.72-.07,1.32-.29,1.33-1.16,0-1.02-.7-1.24-1.52-1.32-.01-.42-.02-.84-.03-1.26.78.04,1.65.35,2.09-.64.11-.24.02-.58.01-.87-.7.19-1.41.37-2.11.56-.41-3.97.63-7.55,3.32-10.47.69-.74-.04-2.15,1.36-2.31.6.43,1.22.64,1.88.18.09-.06.1-.44.02-.51-.63-.53-1.26-.31-1.87.08-.47-.2-.64-.55-.52-1.04.89.07,1.53-.23,1.59-1.19.07-1.16-.65-1.71-1.69-1.94.08-.44.16-.87.24-1.31.6.34,1.22.65,1.79,1.03.4.27.71.73,1.12,0,.43-.75.52-1.49.03-2.23-.74-1.11-.74.14-1.07.34-.63.38-.85-.13-1.11-.54.45-.87,1.01-1.62.74-2.78-.79-3.36.45-6.05,3.1-8.15,1.41.47,2.38.74,3.83-.72,1.57-1.57,3.42-2.88,4.81-4.73.9-1.21,2.35-1.06,3.57-.41,2.78,1.47,4.08.23,4.71-2.41.63-.24,1.24-.18,1.83.11,0,.97.26,1.48,1.34,1.94,4.45,1.88,9.34,2.28,13.73,4.32,1.64.76,1.07-.83,1.31-1.52.79.14,1.38.57,1.83,1.22-.06,2.72,1,4.23,3.97,3.67,1.5.9,3.25,1.45,4.24,3.05-.69.19-1.9.22-.82,1.32.93.95,1.9,2.12,3.54,1.79.58.2.56.72.62,1.19-.62.42-.7.91-.13,1.42.68.62,1.27.05,1.88-.17.5.49,1.28.89,1.46,1.47,1,3.25,3.79,4.97,5.8,7.37,2.33,2.78,3.59,6.45,4.66,9.98.39,1.28.36,2.63,1.1,3.92.74,1.3.74,2.93.08,4.39-2.96,6.51-8.41,10.15-14.78,12.68-.65.26-1.38-.01-1.99-.44-.02-.81-.03-1.61-.05-2.42.47-.96.45-1.8-.55-2.42-.02-.2-.03-.41-.05-.61.27-.73.56-1.47-.5-1.84-.45-4.51-1.24-8.93-3.18-13.1-1.33-2.86-3.46-3.57-6.36-3.02-6.41,1.2-12.71,2.79-18.8,5.16-.65.25-1.32.43-1.98.64-.15-1.2-.83-.87-1.65-.7-1.43.29-.79,1.21-.77,1.97l-.12.16s-.2,0-.2,0c-1.02-.45-1.44-2.04-3.08-1.56.55.9,1.05,1.73,1.55,2.57-1.25,1.3-1.3,2.74-.78,4.43,1.02,3.34,1.86,6.74,2.78,10.12-.42.12-1.12.06-1.01.69.12.73.88.49,1.4.56l.67,1.81c-.87.84-.26,1.06.51,1.21.37.84.74,1.68,1.11,2.52-.15.43-.29.85-.44,1.28-3.18.69-6.37,1.32-9.66,1.09-.22-1.3-1.14-1.88-2.27-1.64-1.14.24-.64,1.42-.77,2.22-1.81.34-3.63.36-5.45.08-.1-1.14-1.03-2.26-1.76-2.16-3.33.47-2.86-2.1-3.34-4.31-.54,1.54-.14,2.85-.92,3.87-.29-.12-.57-.23-.86-.35ZM32.79,20.29c-.33.04-.66.08-.99.13.24.11.48.21.72.32.1.86-.66,1.74,0,2.57.3.37.72.24,1.01-.06,1.71-1.76,4.08-1.76,6.23-2.2,1.18-.24.9-.71.7-1.39,2.34-.36,4.92-2.35,6.64,1.17.38.78,1.42.46,2.18.52-.06,1.29.57,1.89,1.84,1.86,1.25,2.53,2.7.56,3.91.04,1.33-.58,2.94-1.43,2.53-3.23-.37-1.63-1.93-1.81-3.42-1.69-1.19-.39-2.37-.78-3.56-1.17-1.79-.55-3.1-1.41-3.52-3.53-.17-.85-1.16-3.02-2.73-1.29-2.02,2.23-4.32,3.3-7.28,3.69-2.07.27-4.07,1.33-3.49,4.17-.26.03-.52.07-.79.1ZM23.9,31.04c.91.85,1.07.15,1.21-.59.81-.65.52-1.62.73-2.45.43-.23,1.22-.42,1.24-.68.2-2.32.3-4.66.33-6.99,0-.57-.59-.79-1.13-.67-.73.16-1.43.41-2.15.62.89,2.09-1.37,1.99-2.06,2.99-.65.93-2.1,1.38-1.8,2.9-.02.2-.04.4-.06.6-1.8-.1-1.75,1.12-1.77,2.38-.02,1.32.41,2.37,1.66,2.88.86.35,1.28-.2,1.39-1.02.81,0,1.61.02,2.42.02ZM53.31,15.43c.03-.07.05-.15.08-.22-.07-.02-.17-.08-.19-.06-.05.05-.06.14-.09.22.07.02.13.05.2.07Z"/>
      <path class="cls-4" d="M3.94,66.06c.78-1.02.37-2.33.92-3.87.48,2.21.01,4.79,3.34,4.31.73-.1,1.66,1.02,1.76,2.16-2.53.33-4.48-.66-6.02-2.6Z"/>
      <path class="cls-4" d="M15.41,68.58c.13-.8-.38-1.98.77-2.22,1.13-.24,2.06.35,2.27,1.64-.94.57-1.95.78-3.04.58Z"/>
      <path class="cls-4" d="M23.86,44.29c-.5-.83-1.01-1.66-1.55-2.57,1.64-.48,2.06,1.11,3.08,1.56-.51.34-1.02.67-1.53,1.01Z"/>
      <path class="cls-4" d="M25.71,43.13c-.02-.75-.66-1.68.77-1.97.82-.16,1.5-.5,1.65.7-.81.42-1.61.84-2.42,1.26Z"/>
      <path class="cls-4" d="M26.26,60.09c-.52-.08-1.27.17-1.4-.56-.11-.64.59-.57,1.01-.69.42.33.44.78.39,1.26Z"/>
      <path class="cls-4" d="M28.11,66.91c.14-.43.29-.85.44-1.28.4.28.85.59.57,1.14-.2.38-.64.32-1.01.14Z"/>
      <path class="cls-4" d="M27.43,63.12c-.77-.15-1.38-.37-.51-1.21.41.3.57.71.51,1.21Z"/>
      <path class="cls-4" d="M9.18,20.98c.26.41.48.92,1.11.54.34-.2.33-1.45,1.07-.34.49.74.4,1.47-.03,2.23-.42.72-.72.26-1.12,0-.57-.39-1.19-.69-1.79-1.03.25-.46.51-.92.76-1.38Z"/>
      <path class="cls-4" d="M8.18,23.67c1.05.23,1.76.78,1.69,1.94-.05.97-.7,1.27-1.59,1.19-.76-1.02-.61-2.07-.1-3.13Z"/>
      <path class="cls-4" d="M4.13,43.07c.82.08,1.52.3,1.52,1.32,0,.88-.6,1.1-1.33,1.16-.23-.81-.45-1.63-.19-2.48Z"/>
      <path class="cls-4" d="M4.09,40.87c.7-.19,1.41-.37,2.11-.56,0,.29.09.62-.01.87-.44.98-1.31.68-2.09.64,0-.31,0-.63,0-.94Z"/>
      <path class="cls-4" d="M8.8,27.84c.61-.39,1.24-.61,1.87-.08.08.07.07.44-.02.51-.66.47-1.28.25-1.88-.18,0,0,.02-.25.02-.25Z"/>
      <path class="cls-4" d="M4.35,47.93c.5.16,1.52.41.88.91-.63.49-.14,2.66-1.95,1.52.1-.53.19-1.05.29-1.58.26-.28.52-.57.78-.85Z"/>
      <path class="cls-4" d="M49.29,21.34c-.76-.06-1.8.26-2.18-.52-1.71-3.52-4.3-1.53-6.64-1.17-.94-.79-1.88-1.14-2.86-.03-1.18,1.33-2.56,1.35-4.04.56-.58-2.84,1.42-3.9,3.49-4.17,2.96-.38,5.26-1.45,7.28-3.69,1.57-1.73,2.56.43,2.73,1.29.42,2.12,1.72,2.98,3.52,3.53-.27,1.45-1.46,2.61-1.31,4.2Z"/>
      <path class="cls-4" d="M20.26,26.18c-.31-1.52,1.15-1.97,1.8-2.9.69-.99,2.96-.89,2.06-2.99.71-.21,1.42-.46,2.15-.62.54-.12,1.14.1,1.13.67-.03,2.33-.13,4.67-.33,6.99-.02.26-.81.46-1.24.68-.89-3.15-1.71-3.42-5.57-1.83Z"/>
      <path class="cls-2" d="M25.1,30.46c-.5,0-.94.12-1.21.59-.81,0-1.61-.02-2.42-.02-1.58-1.06-1.17-2.73-1.28-4.24.02-.2.04-.4.06-.6,3.87-1.58,4.68-1.32,5.57,1.83"/>
      <path class="cls-4" d="M20.2,26.78c.11,1.51-.31,3.17,1.28,4.24-.11.82-.52,1.37-1.39,1.02-1.25-.51-1.67-1.56-1.66-2.88.02-1.26-.03-2.48,1.77-2.38Z"/>
      <path class="cls-4" d="M23.9,31.04c.27-.46.71-.59,1.21-.59-.14.74-.3,1.44-1.21.59Z"/>
      <path class="cls-4" d="M32.79,20.29c0,.21-.08.36-.27.44-.24-.11-.48-.21-.72-.32.33-.04.66-.08.99-.13Z"/>
      <path class="cls-1" d="M15.31,6.03S25.58-.22,30.96,1.09s1.59,1.44,5.49,2.38,4.29,1.16,7.62,2.56,6.46,2.71,7.91,3.72,4.81,1.78,6.21,4.82,8.99,9.9,8.99,9.9l3.93,5.21c2.49,3.3,4.05,7.21,4.53,11.32h0s2.67,4.81-.68,8.85-11.1,9.46-14.58,10.77-34.88,7.62-38.91,7.73-14.67,1.24-15.83,0-4.79-2.71-4.25-4.64"/>
    </g>
  </g>
</svg>