<?xml version="1.0" encoding="UTF-8"?>
<svg id="Layer_2" data-name="Layer 2" xmlns="http://www.w3.org/2000/svg" viewBox="0 0 74.24 108.12">
  <defs>
    <style>
      .cls-1 {
        fill: #f9dd9f;
      }

      .cls-1, .cls-2, .cls-3, .cls-4, .cls-5, .cls-6, .cls-7 {
        stroke-width: 0px;
      }

      .cls-2 {
        fill: #f99981;
      }

      .cls-3, .cls-8 {
        fill: #000;
      }

      .cls-4 {
        fill: #fdf2d7;
      }

      .cls-8 {
        stroke: #000;
        stroke-miterlimit: 10;
        stroke-width: .61px;
      }

      .cls-5 {
        fill: #f4c28a;
      }

      .cls-6 {
        fill: #f8ebc2;
      }

      .cls-7 {
        fill: #7f674f;
      }
    </style>
  </defs>
  <g id="Layer_1-2" data-name="Layer 1">
    <g>
      <g>
        <path class="cls-8" d="M55.78,81.85c-1.51,2.23-2.51,5.02-4.18,6.83-3.17,3.44-5.72,7.57-9.28,10.42-3.21,2.57-6.54,5.44-10.5,6.9-4.82,1.78-9.65,2.82-14.88.35-4.08-1.93-7.77-4.5-11.83-6.45-3.09-1.48-4.01-4.95-4.61-8.08-.38-2.01-.28-4.22.44-6.27.33,0,.65,0,.98-.01,0,.79,0,1.59,0,2.38-1.19,4.27.27,8.45,3.49,10.41,3.69,2.25,7.38,4.7,11.41,6.51,6,2.69,11.43,1.81,16.68-1.72,2.84-.8,4.52-3.46,7.19-4.53.82-.2,1.59-.65,1.9-1.37,2.15-4.9,7.21-7.41,9.52-12.42,2.65-5.76,6.09-11.12,6.96-17.57.37.05.74.09,1.11.14.21,3.02-.41,5.84-1.99,8.43-1.64,1.68-1.66,4.02-2.42,6.05Z"/>
        <path class="cls-1" d="M31.23,51.62c3.35.5,5.39,2.39,5.9,5.76.66,4.38-.31,8.27-4.25,10.74-1.73,1.09-3.89.13-5.83.16-3.2.05-2.17-2.77-3.34-4.02.36-1.51,1.19-2.72,2.32-3.75,1.22-1.11,2.19-2.38,2.06-4.12-.19-2.44,2.79-2.73,3.15-4.77Z"/>
        <path class="cls-1" d="M33.51,103.12c-.57-.93-2.58-.48-2.17-2.39.37-1.67.48-3.43,2.61-3.92.58-.13,1.17-.34,1.69-.62,3.43-1.83,4.27-1.44,5.05,2.39-2.68,1.07-4.35,3.72-7.19,4.53Z"/>
        <path class="cls-4" d="M43.88,67.35c-.11-2.1.86-3.31,2.96-3.59,1.38.4,3.57-1.96,4.12,1.01.41,2.18-.59,3.88-2.94,4.42-1.82.42-2.51-1.78-4.14-1.83Z"/>
        <path class="cls-1" d="M57.74,65.13c.02,2.23-.67,3.88-2.93,3.96-1.14.04-2.81.09-2.98-1.71-.19-1.97,1.97-4.16,3.89-4.25,1.63-.08,2.17.7,2.02,2Z"/>
        <g>
          <path class="cls-2" d="M61.92,18.68c.11-3.43.78-6.62,1.97-9.83l-5.95-.8c.19,4.61.38,9.22.57,13.82.11,2.74,4.33,4.46,5.64,1.53,1.58-3.54,3.16-7.07,4.74-10.61l-5.64-1.53.12,4.87c.06,2.43,3.39,4.24,5.17,2.14,2.63-3.11,4.48-6.47,5.57-10.39.77-2.76-2.15-4.44-4.45-3.42l.52-.14c-.57-2.43-3.4-2.66-5.06-1.34l-2.58,2.06,5.06,2.95.5-2.43-5.84-1.61c-.53,3.03-1.05,6.06-1.58,9.08-.47,2.71,1.97,4.55,4.45,3.42,1.7-.77,1.88-.28,2.67-1.87l1.81-1.39-.72.19,2.95.78-.53-.44c-2.97-2.48-7.28,1.78-4.28,4.28,3.62,3.03,8.16-.52,6.27-4.84-2.05-4.67-7.54-3.61-11.22-1.93l4.45,3.42c.53-3.03,1.05-6.06,1.58-9.08.66-3.79-5.05-5.46-5.84-1.61l-.5,2.43c-.64,3.11,2.71,4.82,5.06,2.95l2.58-2.06-5.06-1.34c.96,4.1,4.76,5.37,8.37,3.76l-4.45-3.42c-.81,2.9-2.06,5.42-4.01,7.72l5.17,2.14-.12-4.87c-.07-2.77-4.35-4.43-5.64-1.53-1.58,3.54-3.16,7.07-4.74,10.61l5.64,1.53c-.19-4.61-.38-9.22-.57-13.82-.14-3.52-4.77-3.98-5.95-.8-1.37,3.71-2.06,7.5-2.19,11.44s5.93,3.89,6.06,0h0Z"/>
          <path class="cls-8" d="M15.63,70.97c1.33-2.95,3.52-4.95,5.97-7.11,2.24-1.97,4.68-4.58,5.41-8.24.59-2.97,3.36-5.22,4.33-8.25.35-.35.96-.67,1-1.05.46-4.6,3.27-7.4,7.15-9.32.91-.45,1.28-.87,1.4-1.96.76-7.2,5.88-12.41,12.91-13.1,2.03-.2,2.15-1.34,2.17-2.88.03-3.52-.24-7.06.45-10.55.32-1.63.55-3.44,3.03-2.33.73.33,1.11-.21,1.41-.76.29-.53.56-1.07.83-1.61,2.18-4.33,2.2-4.37,6.14-1.68,1.21.83,2.27,1.7,3.85,1.96,1.52.26,2.63,1.13,1.99,3.27-.45,1.51-.05,3.27-.03,4.92-1.14,3.36-2.62,6.47-5.62,8.66-1.45,1.06-2.73,2.35-4.11,3.5-.55.46-1.32.94-.81,1.68,1.82,2.63.38,6.07,2.25,8.65.05,4.33-1.8,8.35-2.13,12.62-.38.21-.76.41-1.15.62-.04-1.21-.07-2.42-.11-3.63.43-1.41.86-2.82,1.29-4.23,1.23-3.19.88-6.16-1.25-8.88-.07-.11-.18-.15-.31-.11v-.07c.57-.53.24-1.24.38-1.86-.14-5.46-3.65-7.25-8.58-6.05-7.52,1.77-10.33,5.12-11.06,13.28-.06.65-.13,1.26-.83,1.42-6.98,1.6-7.61,8.25-10.43,13.14-.08.14.04.39.07.59-.35,2.04-3.33,2.33-3.15,4.77.13,1.74-.84,3.02-2.06,4.12-1.13,1.03-1.96,2.24-2.32,3.75-3.16,1.73-5.57,4.18-7.15,7.43-.31-.24-.62-.47-.93-.71ZM58.89,21.37c3.62,2.51,3.55,2.46,5.72-1.07,1.67-2.72,3.55-5.32,5.33-7.97.58-.54,1.54-1,1.66-1.62.31-1.71,1.85-3.71-.65-5.1-1.17-.08-2.38.04-3.45-.63.11-1.85-1.38-2.49-2.63-2.78-1.18-.27-1.26,1.32-1.82,2.07-.93,1.25-1.26,3.76-2.88,3.51-3.27-.5-2.47,1.63-2.59,3.17-.21,2.8-.26,5.61-.41,8.41-.06,1.24.06,2.27,1.72,2ZM71.44,13.29c-1.43,1.62-3.01,3.12-4.18,5.96,2.77-1.74,3.82-3.62,4.18-5.96Z"/>
          <path class="cls-8" d="M60.19,67.37c-.37-.05-.74-.09-1.11-.14.3-1.48.36-3.05.95-4.41.8-1.87,1.84-3.6,1.32-5.74.02-1,.03-2,.05-3,.21-1.82.42-3.65.63-5.47l1.04,1.18c.58,6.11-.78,11.91-2.87,17.59Z"/>
          <path class="cls-8" d="M63.06,49.78c-.35-.39-.69-.79-1.04-1.18-.09-.2-.08-.39.03-.58.38-.21.76-.41,1.15-.62.25.81.19,1.61-.14,2.38Z"/>
          <path class="cls-6" d="M13.51,78.87c.87-2.05,2.65-.49,4.17-.78-.62-1.87-2.97-4.08,1.04-4.4-.42-1.24-2.19-.59-2.16-2,1.57-3.25,3.98-5.7,7.15-7.43,1.18,1.25.15,4.07,3.34,4.02,1.95-.03,4.1.92,5.83-.16,3.94-2.47,4.9-6.36,4.25-10.74-.5-3.36-2.54-5.26-5.9-5.76-.03-.2-.15-.45-.07-.59,2.83-4.89,3.45-11.54,10.43-13.14.7-.16.77-.77.83-1.42.73-8.15,3.54-11.51,11.06-13.28.21,1.96,1.22,3.02,3.17,3.68,1.43.48,3.26.64,4.11,2.31-2.54.22-5.07.48-7.61.66-.98.07-1.96.38-2.22,1.26-.73,2.4-1.23,5.15.19,7.21,1.26,1.83,3.67,2.3,5.97,1.2.1,4.8,1.32,6.02,4.86,4.89.04,1.21.07,2.42.11,3.62-.11.19-.11.38-.03.58-.21,1.82-.42,3.65-.63,5.47-.19-.05-.47-.04-.57-.16-2.88-3.58-7.71-3.77-11.17-6.39-.41-.31-1.39-.05-2.04.15-2.81.86-3.15,1.99-2,6.37-1.92.19-1.46-2.04-2.61-2.84-1.32,2.58-1.44,4.94-.31,7.4.88,1.91.79,3.4-1.67,4.18-2.38.75-3.07,2.08-.73,3.96.92.74,1.5,1.87,2.32,2.75.66.7,1.47,1.99,2.42,1.24,1.4-1.1-.54-1.48-.87-2.25-.15-.36-.2-.76-.3-1.14,1.63.05,2.32,2.25,4.14,1.83,2.36-.54,3.35-2.23,2.94-4.42-.55-2.97-2.75-.61-4.12-1.01.35-1.71,2.31-1.78,3.1-3.05,3.37.3,6.51-.05,8.92-2.86.58-.68,1.56-.82,2.49-.76.52,2.14-.52,3.88-1.32,5.74-.58,1.35-.65,2.93-.95,4.41-.87,6.45-4.3,11.81-6.96,17.57-2.31,5.01-7.37,7.52-9.52,12.42-.31.72-1.08,1.17-1.9,1.37-.78-3.83-1.62-4.22-5.05-2.39-.53.28-1.11.49-1.69.62-2.14.48-2.24,2.24-2.61,3.92-.42,1.9,1.6,1.46,2.17,2.39-5.25,3.53-10.68,4.41-16.68,1.72-4.03-1.8-7.73-4.26-11.41-6.51-3.21-1.96-4.68-6.13-3.49-10.41.1,0,.2.01.3.01q4.62-.18,4.03-4.21c1.65.32,1.44,2.26,2.63,3.03.53.34.7,1.29,1.65.79,3.05-1.62,5.96-.67,8.87.49,1.98.79,5.01-.26,5.26-1.9.36-2.33-1.28-3.36-3.15-4.07-.45-.17-.99-.11-1.48-.19-1.01-.17-2-.51-2.58-1.37-.98-1.44-2.38-1.7-3.94-1.64ZM23.84,94.09c-.67-1.14-2.23-.2-2.92-1.2-1.72-2.5-2.52-.86-3.23.73-.49,1.09-.82,2.26-1.18,3.4-1.37,4.36,1.39,8.38,5.94,8.39,2.43,0,4.45-1.21,5.68-3.36,1.19-2.09-.71-2.99-1.83-4.15-.35-.36-.27-.69.09-1,1.49-.27,2.98-.55,4.78-.88-2.07-3.01-5.41.24-7.33-1.93ZM3.84,92.63c-.03,2.04,1.17,3.02,3.63,3.21,2.32.18,3.93-2.28,3.72-3.06-.49-1.85-2.86-2.09-4.69-2.38-1.66-.26-2.77.43-2.66,2.23ZM57.74,65.13c.15-1.3-.39-2.09-2.02-2-1.93.1-4.08,2.28-3.89,4.25.17,1.8,1.84,1.75,2.98,1.71,2.26-.08,2.95-1.73,2.93-3.96Z"/>
          <path class="cls-4" d="M57.08,39.51c-2.3,1.1-4.71.63-5.97-1.2-1.42-2.06-.91-4.8-.19-7.21.27-.88,1.24-1.19,2.22-1.26,2.54-.18,5.08-.44,7.61-.66.43.02.87.04,1.3.06-.14.62.19,1.32-.37,1.86-.15.08-.3.15-.45.22.15-.05.29-.1.44-.16.13-.04.23,0,.3.11-.93,1.91-1.51,4.04-3.54,5.21-.94.54-.67,1.53-.74,2.38-.21.21-.41.42-.62.62Z"/>
          <path class="cls-1" d="M57.08,39.51c.21-.21.41-.42.62-.62,3.66-2.67,3.92-2.61,5.54,1.28-.43,1.41-.86,2.82-1.29,4.23-3.54,1.13-4.76-.09-4.86-4.89Z"/>
          <path class="cls-1" d="M62.06,29.25c-.43-.02-.87-.04-1.3-.06-.85-1.67-2.68-1.83-4.11-2.31-1.95-.66-2.96-1.72-3.17-3.68,4.93-1.19,8.44.59,8.58,6.05Z"/>
          <path class="cls-6" d="M63.24,40.16c-1.62-3.89-1.88-3.95-5.54-1.28.08-.85-.19-1.84.74-2.38,2.03-1.17,2.6-3.3,3.54-5.21,2.14,2.72,2.49,5.68,1.26,8.87Z"/>
          <path class="cls-6" d="M61.68,31.17c-.15.05-.29.1-.44.16.15-.07.3-.15.45-.22,0,0-.01.07-.01.07Z"/>
          <path class="cls-4" d="M61.34,57.08c-.93-.06-1.91.08-2.49.76-2.41,2.82-5.54,3.16-8.92,2.86-.35-1.17-.88-2.32-.64-3.59.88-.19,1.35-.63.55-1.39-.82-.78-1.87-1.13-3.03-1.04-.4-.21-.79-.42-1.19-.63-1.15-4.38-.81-5.51,2-6.37.65-.2,1.63-.46,2.04-.15,3.45,2.61,8.28,2.81,11.17,6.39.1.13.38.11.57.16-.02,1-.03,2-.05,3Z"/>
          <path class="cls-1" d="M45.62,54.05c.4.21.79.42,1.19.63.32,1.33,2.41.85,2.48,2.43-.24,1.28.29,2.42.64,3.59-.79,1.26-2.75,1.34-3.1,3.05-2.1.28-3.07,1.49-2.96,3.59.1.38.15.79.3,1.14.33.76,2.27,1.15.87,2.25-.96.75-1.77-.54-2.42-1.24-.82-.88-1.4-2.01-2.32-2.75-2.34-1.88-1.65-3.21.73-3.96,2.46-.78,2.55-2.27,1.67-4.18-1.13-2.46-1.01-4.82.31-7.4,1.15.8.69,3.03,2.61,2.84Z"/>
          <path class="cls-6" d="M49.3,57.11c-.08-1.58-2.16-1.1-2.48-2.43,1.16-.09,2.21.26,3.03,1.04.8.76.33,1.2-.55,1.39Z"/>
        </g>
      </g>
      <path class="cls-6" d="M20.97,77.99c-5.29.69-12.54,3.86-13,10.08-.49,6.59,8.14,8.33,12.92,6.27,5.82-2.51,5.94-9.77.76-13.05-4.52-2.87-12.76-3.01-15.85,2.18-3.47,5.85,2.86,10.61,8.17,10.96,5.78.38,11.52-4.63,8.93-10.68s-10.61-5.97-14.31-1.18c-3.15,4.07-2.56,12.47,4.19,11.99,8.31-.58,4.88-13.6-2.59-9.86-.33.16-1.4.92-1.44,1.05l1.62,2.37.68-.72c1.59-.72,3.26-3.24,4.55-4.47,3.26-3.1,6.62-6.07,10.06-8.95,4.19-3.51-1.84-9.48-6-6-3.26,2.73-6.45,5.54-9.55,8.47-2.64,2.5-6.3,5.2-7.69,8.66-1.26,3.14-.18,6.79,2.71,8.62,1.46.93,3.08,1.26,4.81.99,1.01-.15,5-2.32,3.06-2.18l-3-1.24.59.62-1.24-3-.09.88,2.1-3.66.51-.14,3,1.24c-.04,1.14.2,1.21.72.21.19-1.44-.4-1.97-1.78-1.59-1.39-.7-1.7.05-.92,2.22.84-.36,1.72-.45,2.64-.27,1.46,1,1.92.61,1.39-1.19-1.74-.37-1.74.23,0,1.79.37.08,3.19-1.85,4.03-1.96,5.33-.7,5.4-9.19,0-8.48h0Z"/>
      <path class="cls-5" d="M26.38,96.9c-.37.3-.44.64-.09,1,1.12,1.16,3.01,2.06,1.83,4.15-1.22,2.15-3.24,3.37-5.68,3.36-4.55-.01-7.31-4.03-5.94-8.39.36-1.15.69-2.31,1.18-3.4.71-1.59,1.51-3.23,3.23-.73.69,1,2.24.06,2.92,1.2-.28,1.64-1.79,4.29,2.08,2.52.09-.04.31.19.47.29Z"/>
      <path class="cls-7" d="M26.38,96.9c-.16-.1-.37-.34-.47-.29-3.87,1.77-2.36-.88-2.08-2.52,1.91,2.17,5.26-1.08,7.33,1.93-1.81.33-3.3.61-4.78.88Z"/>
      <g>
        <path class="cls-3" d="M18.57,68.06c-3.27,3.94-7.01,7.49-11.12,10.55-1.64,1.22-3.36,2.38-4.64,3.96s-2.1,3.71-1.59,5.68"/>
        <path class="cls-3" d="M17.93,67.42c-3.23,3.88-6.89,7.39-10.93,10.41-3.45,2.57-7.75,5.74-6.65,10.67.26,1.14,2.01.66,1.75-.48-1.03-4.61,4.44-7.5,7.42-9.85,3.56-2.8,6.8-5.98,9.7-9.46.74-.89-.54-2.18-1.28-1.28h0Z"/>
      </g>
    </g>
  </g>
</svg>