<?xml version="1.0" encoding="UTF-8"?>
<svg id="Layer_2" data-name="Layer 2" xmlns="http://www.w3.org/2000/svg" viewBox="0 0 61.82 33.35">
  <defs>
    <style>
      .cls-1 {
        fill: #e05c5c;
      }

      .cls-1, .cls-2 {
        stroke-width: 0px;
      }

      .cls-2 {
        fill: #c22f2f;
      }
    </style>
  </defs>
  <g id="Layer_1-2" data-name="Layer 1">
    <g>
      <g>
        <path class="cls-1" d="M32.82,4.37c-4.25-2.74-8.33-1.28-11.17,1.99-3.27,3.77-6.11,5.17-11.2,3.23C5.37,7.64.02,11.69,0,16.38c-.03,2.35,1.27,4.1,2.79,5.62,4.87,4.88,10.54,8.48,17.03,10.91,2.51.93,4.09.37,5.56-1.55,3.96-5.15,7.54-10.53,9.59-16.75,1.24-3.78,1.93-7.62-2.15-10.24ZM31.11,11.78c-1,5.98-3.86,10.83-8.04,15.08-2.32,2.36-5.09,2.86-7.73,1.37-4.46-2.52-8.76-5.34-11.97-9.52-1.06-1.38-1.2-2.87-.42-4.18,1.44-2.42,3.91-2.88,7.47-2.61,5.8,4.73,9.76.18,13.92-4.29,1.36-1.46,3.39-1.25,5.07-.09,1.46,1.01,2.04,2.22,1.7,4.24Z"/>
        <path class="cls-2" d="M31.11,11.78c-1,5.98-3.86,10.83-8.04,15.08-2.32,2.36-5.09,2.86-7.73,1.37-4.46-2.52-8.76-5.34-11.97-9.52-1.06-1.38-1.2-2.87-.42-4.18,1.44-2.42,3.91-2.88,7.47-2.61,5.8,4.73,9.76.18,13.92-4.29,1.36-1.46,3.39-1.25,5.07-.09,1.46,1.01,2.04,2.22,1.7,4.24Z"/>
      </g>
      <g>
        <path class="cls-1" d="M61.81,13.9c.1-3.07-1.94-4.74-4.54-5.2-2.99-.52-4.61-1.56-5.19-4.83-.58-3.26-4.36-4.78-6.81-3.32-1.23.72-1.74,1.95-2.06,3.21-1.02,4.07-1.12,8.15-.35,12.29.3,1.6,1.09,2.25,2.55,2.41,3.92.45,7.85.63,11.73-.25,2.36-.54,4.58-1.38,4.66-4.33ZM57.41,15.33c-3.43,1.35-6.85,1.38-10.38.53-1.96-.47-3.08-1.76-3.14-3.6-.08-3.11.04-6.24,1.21-9.22.39-.98,1.12-1.52,2.05-1.53,1.71,0,2.73,1.14,3.7,3.08-.65,4.5,2.96,5.14,6.6,5.91,1.19.25,1.71,1.38,1.64,2.61-.07,1.08-.52,1.76-1.68,2.21Z"/>
        <path class="cls-2" d="M57.41,15.33c-3.43,1.35-6.85,1.38-10.38.53-1.96-.47-3.08-1.76-3.14-3.6-.08-3.11.04-6.24,1.21-9.22.39-.98,1.12-1.52,2.05-1.53,1.71,0,2.73,1.14,3.7,3.08-.65,4.5,2.96,5.14,6.6,5.91,1.19.25,1.71,1.38,1.64,2.61-.07,1.08-.52,1.76-1.68,2.21Z"/>
      </g>
    </g>
  </g>
</svg>