<?xml version="1.0" encoding="UTF-8"?>
<svg id="Layer_2" data-name="Layer 2" xmlns="http://www.w3.org/2000/svg" viewBox="0 0 108.07 94.44">
  <defs>
    <style>
      .cls-1 {
        fill: #65646f;
      }

      .cls-1, .cls-2, .cls-3, .cls-4, .cls-5, .cls-6, .cls-7, .cls-8, .cls-9, .cls-10, .cls-11, .cls-12 {
        stroke-width: 0px;
      }

      .cls-2 {
        fill: #e4b79b;
      }

      .cls-3 {
        fill: #805c50;
      }

      .cls-4 {
        fill: #915a43;
      }

      .cls-5 {
        fill: #f3b93e;
      }

      .cls-6 {
        fill: #f2d0b9;
      }

      .cls-7 {
        fill: #e0a382;
      }

      .cls-8 {
        fill: #faefd4;
      }

      .cls-9 {
        fill: #8fb4cf;
      }

      .cls-10 {
        fill: #c1896b;
      }

      .cls-11 {
        fill: #271c15;
      }

      .cls-12 {
        fill: #eba773;
      }
    </style>
  </defs>
  <g id="Layer_1-2" data-name="Layer 1">
    <g>
      <g>
        <path class="cls-11" d="M104.53,72.17c3.82,6.1,2.11,12.49-4.47,16.52-5.58,3.42-11.83,4.87-18.22,5.36-24.22,1.84-47.07-2.8-68.1-15.25-4.5-2.66-8.5-6.01-11.4-10.48-4.07-6.28-2.78-12.72,3.4-16.91.73-.5,1.48-1.02,2.29-1.33,3.4-1.3,6.54-2.67,7.22-6.95.26-1.67,1.95-2.69,3.6-3.19,1.97-.59,2.72-1.88,3.02-3.83.45-2.91,1.16-5.78,1.76-8.66.33-.46.78-.59,1.32-.52,0,.33.01.67.02,1,.08.53.16,1.05.23,1.58-.95.09-.97.76-.91,1.48-.78,3.44-1.65,6.86-1.99,10.39-.48.12-.96.25-1.44.37-1.62-1.21-2.69,0-3.6,1-1.32,1.42-1.47,3.37-1.81,5.2-.42,2-.85,4-1.27,6-.56-.01-1.12-.03-1.67-.04.17-1.31.34-2.63.57-4.46-1.8.82-3.23,1.39-4.58,2.1-7.64,4.03-9.06,10.67-3.75,17.53,3.24,4.19,7.46,7.25,12.01,9.81,16.87,9.51,35.19,13.62,54.39,14.11,8.97.23,17.84-.58,26.15-4.53,6.82-3.24,8.81-7.44,6.78-14.72.16-.52.32-1.04.47-1.56Z"/>
        <path class="cls-1" d="M49.47,12.88c.99-.18,1.59-.73,1.69-1.76.47.08.9.05,1.23-.35.58.11,1.16.22,1.74.32.81,1.2,1.59.4,2.37-.04l1.14.1c.5.07,1,.14,1.5.21,1.06.38,2.52-.17,3.08,1.35.65.12,1.16-.09,1.56-.62.47.64.96.28,1.53.11,5.59-1.65,9.44.15,11.98,5.54.16.34.44.63.66.94-.08.51-.16,1.03-.24,1.54-.12.33-.25.66-.37.99-1.45-.19-1.38,1.14-1.79,1.9-2.7,4.91-6.53,6.02-11.34,3.2-.59-.35-1.1-.89-1.74-.13-.14-.03-.27-.08-.4-.15-.26.12-.52.24-.79.36,0,0-.02,0-.02,0-.9-.32-1.68.04-2.53.32-6.06,1.98-11.36-2.79-10.17-9.09.17-.93.69-1.88,0-2.81.03-.2.06-.4.09-.59.02-.25.03-.5.05-.75,0,0-.04.1-.03.1.26-.23.53-.47.79-.7ZM52.16,20.94c.06.07.12.13.19.2-.07-.06-.14-.12-.21-.18-.11-1.63,1.54-1.83,2.24-2.8.49-.68.76-2.7,1.5-1.71,1.11,1.49,4.27,0,3.91,2.96-.11.87.28,1.37,1.09,1.36,1.12-.01,1.09-.9,1.08-1.7-.03-2.56-1.15-4.49-3.44-5.67-2.23-1.15-7.37-.49-7.83,1.3-.55,2.12-1.06,4.66,1.48,6.24ZM72.73,16.47c-.41-1.22-1.08-1.77-1.79-2.29-1.83-1.36-6.32-.1-6.83,2.1-.34,1.46.21,3.38,1.63,3.7,1.41.32,3.39-1.57,3.42-2.39.13-3.78,2.18-.98,3.58-1.12ZM53.7,22.84c.1-.14.2-.29.3-.43-.15-.1-.3-.29-.43-.27-.12.02-.2.26-.3.4.14.1.29.2.44.3Z"/>
        <path class="cls-1" d="M104.53,72.17c-.16.52-.32,1.04-.47,1.56-.28-.02-.8-.11-.82-.05-.85,2.85-4.11,4.03-4.69,7.26-.32,1.77-1.49,3.66-3.34,4.89-3.26,2.16-6.48,1.63-9.79.35-1.21-1.12-2.42-2.24-3.63-3.36.06-.49.12-.98.17-1.47-.92-4.2-.23-7.94,3.72-10.24,1.75-1.02,2.07-2.13,1.55-3.83.24,0,.49,0,.73,0,2.93-.82,4.72-3.03,6.48-5.29,2.07.33,4.23,2.46,6.14-.35.1-.15.53-.08.8-.12.22,3.21,3.59.95,4.61,2.67.18.3-.08.96-.31,1.36-.73,1.27-.4,2.21.72,3,.63.44,1.5.83,1.21,1.77-.32,1.05-1.31.95-2.21.96-.53,0-1.62-.42-.87.89ZM101.94,71.99c.91-3.82-2.21-8.87-7.38-6.94-1.46.55-2.12,1.91-3.37,2.68-1.3.8-1.05,1.72.6,1.98,2.93.47,5.12,2.06,6.27,4.77.93,2.19,1.71,1.59,2.77.19.61-.81.96-1.69,1.12-2.68ZM91.71,71.69c-1.78-.81-3.14.33-4.23,1.76-.7.93-.63,2.44.34,2.88,1.55.7,3.47.77,4.84-.51,1.29-1.2,1.77-.77,2.18.59.2.65.32,1.54,1.23,1.28,1.09-.31.64-1.28.46-1.97-.61-2.34-2.32-3.48-4.83-4.04Z"/>
        <path class="cls-11" d="M80.12,19.43c4.58,1.51,8.93,3.49,12.89,6.25,4.37,3.05,6.3,7.31,6.09,12.59-.77.58-.9,1.17-.03,1.77.02,2.09.06,4.19-1.69,5.77-.44-.27-.87-.53-1.31-.8.72-.61,1.01-1.46,1.16-2.32,1.21-6.92-.17-13.09-7.09-17.07-3.64-2.1-7.57-3.53-11.36-5.29.45-.3.9-.6,1.35-.9Z"/>
        <path class="cls-11" d="M48.67,14.23c-.03.2-.06.4-.09.59-.4.11-.8.23-1.21.34-3.63-1.04-7.3-.96-11-.5-8.57,1.08-9.54,2-10.9,10.57-.17.56-.35,1.12-.52,1.68-.53-.07-.99.06-1.32.52-.41-8.81,2.82-13,11.23-14.2,4.44-.63,8.93-1.37,13.34.29.15.23.31.47.46.7Z"/>
        <path class="cls-11" d="M63.78,12.1c-.39.52-.91.74-1.56.62.16-1.82-.06-3.55-1.25-5.04-.61-2.43-2.5-3.8-4.35-5.21-1.24-.94-1.91-.62-2.72.71-1.46,2.39-1.27,5.01-1.52,7.59-.33.39-.77.43-1.23.35-1.01-3.92.37-7.25,2.53-10.42.67-.98,1.39-.75,2.28-.39,4.39,1.76,7.87,6.98,7.82,11.79Z"/>
        <path class="cls-11" d="M96.07,45.01c.44.27.87.53,1.31.8-1.72.84-2.25,2.31-2.58,4.13-.72,4.02-2.17,7.98-.36,12.06-1.76,2.25-3.55,4.46-6.48,5.29.07-.35.14-.7.21-1.05,1.46-.46,2.53-1.68,3.25-2.74,1.11-1.65,1.65-3.8-.28-5.55-.21-.35-.42-.7-.62-1.05,3.18-2.88,2.66-6.95,3.41-10.61.45-.38.9-.77,1.35-1.15.27-.04.53-.07.8-.11Z"/>
        <path class="cls-11" d="M80.12,19.43c-.45.3-.9.6-1.35.9-.35-.03-.71-.06-1.06-.09.08-.51.16-1.03.24-1.54.72.24,1.45.49,2.17.73Z"/>
        <path class="cls-3" d="M99.07,40.04c-.86-.61-.74-1.2.03-1.77-.01.59-.02,1.18-.03,1.77Z"/>
        <path class="cls-3" d="M48.67,14.23c-.15-.23-.31-.47-.46-.7.16-.07.33-.09.51-.05-.02.25-.03.5-.05.75Z"/>
        <path class="cls-3" d="M49.47,12.88c-.26.23-.53.47-.79.7.13-.39.33-.69.79-.7Z"/>
        <path class="cls-8" d="M85.42,86.19c3.31,1.27,6.53,1.81,9.79-.35,1.85-1.23,3.02-3.13,3.34-4.89.59-3.23,3.84-4.42,4.69-7.26.02-.06.53.03.82.05,2.03,7.28.05,11.48-6.78,14.72-8.31,3.95-17.18,4.75-26.15,4.53-19.2-.49-37.52-4.59-54.39-14.11-4.55-2.57-8.76-5.62-12.01-9.81-5.3-6.85-3.88-13.49,3.75-17.53,1.35-.71,2.78-1.28,4.58-2.1-.23,1.83-.4,3.14-.57,4.46-.03,1.31-1.21,1.67-1.96,2.38-2.89,2.71-3.65,7.08-1.81,10.49,1.9,3.51,6.15,5.66,9.65,4.87-.13.87.2,1.57.94,1.99,2.53,1.44,5.01,2.99,7.66,4.16.95.42,2.05,1.91,3.4.57,1.96,1.64,4.36,1.88,6.75,2.14-.04.64.13,1.15.82,1.37,1.95.61,3.87,1.37,5.85,1.8,10.2,2.18,20.4,4.49,30.92,4.39,3.64-.03,7.34-.03,10.69-1.85Z"/>
        <path class="cls-8" d="M22.3,41.37c.34-3.53,1.21-6.95,1.99-10.39,4.15.57,7.12,3.29,10.31,5.62.1.44.2.87.31,1.31-.56,1.26-.17,2.47.28,3.63.51,1.33,1.48,2.29,2.97,2.38,1.57.09,2.5-.78,2.83-2.3,4.78,1.94,8.86-.04,12.89-2.32,2.9,1.15,3.79,3.57,3.7,6.37-.07,2.28.42,4.12,2.69,5,2.21.86,4.01.14,5.39-1.74,1.91.13,2.06-1.48,2.58-2.66.85-1.9,1.98-3.33,4.3-3.22.06.22.12.45.18.67l-.5.29c.2.11.41.23.61.34.32,1.91-.44,3.85.14,5.77.45,1.47,1.13,2.68,2.77,3.05,1.63.37,2.84-.33,3.77-1.58.46-.61.8-1.32,1.2-1.98,1.04.28,1.82,0,2.62-.8,1.59-1.6,4.15-1.44,5.56.19,1.06,1.23.49,4.44-.96,5.55-3.21,2.44-7.21,3.14-10.85,3.06-4.54-.1-9.13.03-13.73-.75-11.28-1.92-22.28-4.5-32.6-9.63-1.51-.75-2.66-2.86-4.87-1.81-1.71-.88-2.57-2.52-3.58-4.03Z"/>
        <path class="cls-1" d="M18.38,71.63c-3.5.79-7.75-1.36-9.65-4.87-1.84-3.41-1.08-7.78,1.81-10.49.75-.71,1.93-1.07,1.96-2.38.56.01,1.12.03,1.67.04.41.02.81.04,1.22.06,1.59,1.2,3.37,1.34,5.25.95,1.71.89,2.86,2.38,4.03,3.84,0,0-.03-.06-.03-.06.12.16.24.32.36.48.26,1.07.51,2.13.77,3.2-.84,2.93-1.98,5.68-4.5,7.63-.47.33-.95.66-1.42.99-.56.02-1.23-.2-1.48.6ZM14.68,63.29c-1.39-3.14,2.29-1.89,2.49-3.73.18-1.68.95-2.16,2.19-.67.57.68,1.02.32,1.41-.15.38-.46.23-.93-.21-1.26-1.81-1.35-3.89-1.93-6.07-1.49-1.56.32-2.2,1.73-2.61,3.2-.61,2.19,1.28,2.71,2.81,4.1Z"/>
        <path class="cls-11" d="M22.3,41.37c1,1.51,1.87,3.14,3.58,4.03,1.47,1.82,3.56,2.75,5.57,3.74,10.68,5.25,22.03,8.12,33.82,9.42,8.51.94,17,1.48,25.25-1.67.21.35.42.7.62,1.05-.99.83-2.22,1.13-3.41,1.53-3.72,1.25-7.69.71-11.45,1.62-11.8-.7-23.43-2.39-34.67-6.14-7.09-2.36-14.01-5.14-19.47-10.57-.42-.88-.84-1.76-1.25-2.64.48-.12.96-.25,1.44-.37Z"/>
        <path class="cls-6" d="M34.6,36.59c-3.19-2.33-6.16-5.05-10.31-5.62-.06-.72-.04-1.39.91-1.48,3.72-1.24,6.67-.22,8.86,3.02-.41,1.43.62,2.68.54,4.07Z"/>
        <path class="cls-12" d="M20.87,41.74c.42.88.84,1.76,1.25,2.64-.31.34-.67.38-1.03.1-2.27-1.79-2.93-1.57-3.66,1.14-.23.84-.63,1.63-.95,2.45-.34-.04-.69-.09-1.03-.13.34-1.83.49-3.77,1.81-5.2.92-.99,1.98-2.21,3.6-1Z"/>
        <path class="cls-11" d="M34.07,32.52c-2.19-3.24-5.14-4.27-8.86-3.02-.08-.53-.16-1.05-.23-1.58,2.1,1.04,3.83-1.5,5.91-.61,1.56.66,2.07,2.28,3.15,3.37.21.61.39,1.22.03,1.84Z"/>
        <path class="cls-2" d="M15.45,47.93c.34.04.69.09,1.03.13-.15,2.14-.01,4.16,2.09,5.43-.97.73-2.18-.07-3.17.5-.41-.02-.81-.04-1.22-.06.42-2,.85-4,1.27-6Z"/>
        <path class="cls-2" d="M30.88,27.31c-2.08-.88-3.81,1.65-5.91.61,0-.33,0-.67-.02-1,.17-.56.35-1.12.52-1.68.88.72,1.84.94,3.01.82.94-.1,2.31-.5,2.4,1.25Z"/>
        <path class="cls-5" d="M30.88,27.31c-.09-1.75-1.46-1.35-2.4-1.25-1.17.12-2.13-.1-3.01-.82,1.36-8.57,2.32-9.5,10.9-10.57,3.7-.46,7.37-.54,11,.5-.23,1.6-.46,3.21-.69,4.81-.46.34-.44.68,0,1.01.06.18.07.37.04.56-.28.87-.51,1.71.74,2.01v.02c.09,2.65-.59,3.29-3.28,1.94-3.05-1.53-5.86-3.52-9.01-4.84-.8-.34-1.83-.7-2.44.15-.68.95-.35,1.84.83,2.28.68,1.67,2.09,2.21,3.71,2.43,2.76,1.02,5.52,2.03,8.28,3.05.74,1.19,2.01,1.47,3.21,1.82,7.52,2.19,15.13,3.93,22.94,4.61,5.06.44,10.13.96,15.2.13.97-.16,2.67.19,2.1-1.85.98-.4.6-1.02-.04-1.05-4.31-.25-8.71-1-12.72,1.45-6.27-.04-12.39-1.17-18.45-2.63.41-.93.81-1.87,1.22-2.8l.02.05c.25-.18.49-.37.74-.55.5-.45,1.01-.9,1.51-1.35,0,0,.02,0,.02,0,.26-.12.52-.24.79-.36.12.07.26.12.4.15,2.29,2.8,5.29,3.65,8.67,2.74,3.83-1.04,5.75-3.83,6.2-7.7.12-.33.25-.66.37-.99.36.03.71.06,1.06.09,3.79,1.76,7.72,3.19,11.36,5.29,6.92,3.99,8.3,10.15,7.09,17.07-.15.86-.44,1.71-1.16,2.32-.27.04-.53.07-.8.11-.73-.67-1.75-.89-2.45-.39-2.55,1.81-3.79.53-5.32-1.57-1.85-2.54-5.74-1.96-7.08.73-.4.81-.3,1.29.61,1.51-.23,1.07-.46,2.14-.7,3.21-1.21-.12-1.53.98-2.18,1.61-1.95-.15-2.56-1.93-3.69-3.07-.39-.66-.08-1.33-.05-2,.09-2.32-.48-4.35-2.94-5.11-2.09-.65-4.15.89-5.13,3.59-.09.54-.18,1.07-.27,1.61-1.59-.07-1.38,1.34-1.78,2.22-.57,1.27-1.43,2.17-2.88,1.87-1.34-.28-2.16-1.26-2.25-2.67-.04-.66.13-1.34.2-2.01,2.3-2.23.36-4.12-.71-5.82-1.09-1.74-2.78-3-5.09-1.71-2.33-.29-4.43.41-6.39,1.58-1.15.69-1.95.79-2.97-.43-1.92-2.33-2.9-2.24-5.13,0-1-.01-2-.03-3-.04l-.07-.15c-.31-2.56.21-5.34-1.97-7.4-1.08-1.09-1.6-2.72-3.16-3.38Z"/>
        <path class="cls-9" d="M52.16,20.94c-2.54-1.58-2.03-4.12-1.48-6.24.47-1.79,5.6-2.45,7.83-1.3,2.29,1.18,3.41,3.11,3.44,5.67.01.8.04,1.69-1.08,1.7-.81,0-1.2-.49-1.09-1.36.36-2.96-2.79-1.46-3.91-2.96-.74-.99-1.01,1.03-1.5,1.71-.7.97-2.36,1.17-2.24,2.8l.03-.02Z"/>
        <path class="cls-7" d="M52.39,10.77c.24-2.58.06-5.2,1.52-7.59.81-1.33,1.48-1.65,2.72-.71,1.85,1.4,3.73,2.77,4.34,5.21-.18-.06-.35-.12-.53-.16-1.81.52-2.65-.87-4.23-2.49,1.26,2.94-.98,2.39-2.02,2.93.71,1.78,3.63.77,3.45,3.2-.38-.03-.76-.07-1.14-.1-.8-.33-1.58-.23-2.37.04-.58-.11-1.16-.22-1.74-.32Z"/>
        <path class="cls-11" d="M46.68,19.97c.23-1.6.46-3.21.69-4.81.4-.11.8-.23,1.21-.34.69.94.17,1.89,0,2.81-1.19,6.3,4.11,11.07,10.17,9.09.85-.28,1.63-.64,2.53-.32-.5.45-1.01.9-1.51,1.35-.25.18-.49.37-.74.55,0,0-.02-.05-.02-.05-4.94,1.14-8.78-.44-11.54-4.69,0,0,0-.02,0-.02-.25-.67-.49-1.34-.74-2.01.03-.19.02-.38-.04-.56,0-.34,0-.67,0-1.01Z"/>
        <path class="cls-9" d="M72.73,16.47c-1.4.14-3.45-2.66-3.58,1.12-.03.82-2,2.71-3.42,2.39-1.42-.32-1.97-2.24-1.63-3.7.52-2.2,5-3.46,6.83-2.1.71.53,1.38,1.07,1.79,2.29Z"/>
        <path class="cls-11" d="M77.34,21.23c-.45,3.87-2.37,6.66-6.2,7.7-3.38.92-6.37.06-8.67-2.74.64-.76,1.15-.22,1.74.13,4.8,2.82,8.64,1.71,11.34-3.2.41-.75.34-2.08,1.79-1.9Z"/>
        <path class="cls-11" d="M57.64,11.16c.18-2.43-2.74-1.42-3.45-3.2,1.04-.54,3.28,0,2.02-2.93,1.58,1.62,2.42,3.01,4.23,2.49-.7,1.19-1.58,2.33-1.3,3.85-.5-.07-1-.14-1.5-.21Z"/>
        <path class="cls-10" d="M59.14,11.37c-.28-1.52.6-2.66,1.3-3.85.18.05.36.1.53.16,1.2,1.49,1.42,3.22,1.26,5.04-.56-1.52-2.02-.97-3.08-1.35Z"/>
        <path class="cls-3" d="M54.13,11.09c.79-.27,1.57-.37,2.37-.04-.78.44-1.56,1.24-2.37.04Z"/>
        <path class="cls-9" d="M53.7,22.84c-.15-.1-.29-.2-.43-.3.1-.14.19-.38.3-.4.13-.02.29.17.43.27-.1.14-.2.29-.3.43Z"/>
        <path class="cls-9" d="M52.13,20.96c.07.06.14.12.21.18-.06-.07-.12-.13-.19-.2,0,0-.03.02-.03.02Z"/>
        <path class="cls-3" d="M62.08,26.04c-.26.12-.52.24-.79.36.26-.12.52-.24.79-.36Z"/>
        <path class="cls-6" d="M85.42,86.19c-3.35,1.83-7.05,1.82-10.69,1.85-10.52.09-20.72-2.22-30.92-4.39-1.99-.42-3.9-1.19-5.85-1.8-.68-.21-.85-.73-.82-1.37,1.49-.56,2.86-1.47,4.54-1.44,4.6.97,9.17,2.14,13.81,2.87,8.71,1.37,17.47,2.35,26.29.9,1.21,1.12,2.42,2.24,3.63,3.36Z"/>
        <path class="cls-6" d="M87.23,67.29c.52,1.7.2,2.81-1.55,3.83-3.95,2.3-4.64,6.04-3.72,10.25-12.61,1.48-24.97-.05-37.17-3.23-.08-1.16-.25-2.26.46-3.39.73-1.15,1.4-1.58,2.53-.65,2.97,2.43,6.63,3.04,10.16,4.14,7.24,2.26,13.63.53,19.65-3.4,1.51-.99,3.47-2.03,3.06-4.49,2.19-1.02,3.35-4.24,6.56-3.06Z"/>
        <path class="cls-9" d="M101.93,71.99c-.15.98-.5,1.86-1.11,2.68-1.06,1.41-1.84,2-2.77-.19-1.15-2.71-3.34-4.3-6.27-4.77-1.65-.26-1.9-1.18-.6-1.98,1.25-.77,1.91-2.13,3.37-2.68,5.17-1.94,8.29,3.12,7.38,6.94Z"/>
        <path class="cls-11" d="M44.79,78.13c12.21,3.19,24.56,4.71,37.17,3.23-.06.49-.12.98-.17,1.47-8.82,1.45-17.58.47-26.29-.9-4.64-.73-9.21-1.9-13.81-2.87.31-.42.62-.84.93-1.26.73.11,1.45.22,2.18.34Z"/>
        <path class="cls-9" d="M91.71,71.69c2.51.56,4.22,1.69,4.83,4.04.18.69.63,1.66-.46,1.97-.91.25-1.03-.63-1.23-1.28-.41-1.36-.89-1.8-2.18-.59-1.37,1.28-3.29,1.21-4.84.51-.97-.44-1.04-1.96-.34-2.88,1.09-1.43,2.45-2.57,4.23-1.76Z"/>
        <path class="cls-11" d="M87.23,67.29c-3.21-1.18-4.37,2.04-6.56,3.06-1.09.22-2.2.16-3.18-.27-2.66-1.16-5.19-2.66-8.15-2.96,1.54-2.2,3.44-.81,5.23-.52,3.84,2.97,4.24,2.93,8.32.03,1.61-1.14,3.37-2.2,5.27-.4-.07.35-.14.7-.21,1.05-.24,0-.49,0-.73,0Z"/>
        <path class="cls-6" d="M80.34,48.61c.23-1.07.46-2.14.7-3.21,2.62-3.18,3.88-3.15,6.45.29,1.24,1.65,2.65,2.28,4.52,1.15.6-.36,1.19-.67,1.91-.58-.75,3.66-.23,7.73-3.41,10.61-8.24,3.16-16.73,2.62-25.25,1.67-11.78-1.31-23.14-4.17-33.82-9.42-2.01-.99-4.1-1.91-5.57-3.74,2.21-1.04,3.37,1.07,4.87,1.81,10.32,5.13,21.32,7.7,32.6,9.63,4.59.78,9.18.65,13.73.75,3.65.08,7.64-.62,10.85-3.06,1.45-1.1,2.02-4.31.96-5.55-1.4-1.63-3.97-1.79-5.56-.19-.8.8-1.58,1.07-2.62.8-.12-.32-.25-.65-.37-.97Z"/>
        <path class="cls-12" d="M88.16,66.23c-1.9-1.79-3.66-.74-5.27.4-4.09,2.9-4.49,2.94-8.32-.03,1.89.12,3.79.76,5.49-.9,1.61-1.58,3.62-2.12,5.88-1.22.51.2,1.18.2,1.72.07,1.46-.33,2.18-1.59,2.11-2.83-.09-1.5-1.45-.68-2.31-.72-1.06-.05-2.15.23-3.14.22-2.68-.04-5.41,1.2-8.06-.13,3.77-.91,7.73-.36,11.45-1.62,1.19-.4,2.42-.7,3.41-1.53,1.93,1.75,1.39,3.9.28,5.55-.71,1.06-1.79,2.28-3.25,2.74Z"/>
        <path class="cls-11" d="M93.92,46.27c-.73-.09-1.31.22-1.91.58-1.88,1.13-3.29.5-4.52-1.15-2.57-3.44-3.83-3.47-6.45-.29-.91-.22-1.01-.7-.61-1.51,1.34-2.69,5.23-3.27,7.08-.73,1.53,2.1,2.77,3.38,5.32,1.57.7-.5,1.72-.28,2.45.39-.45.39-.9.77-1.35,1.15Z"/>
        <path class="cls-1" d="M42.61,77.79c-.31.42-.62.84-.93,1.26-1.68-.04-3.05.88-4.54,1.44-2.39-.26-4.8-.5-6.75-2.14-1.3-1.27-1.92-3.1-3.48-4.15.13-.48.25-.96.38-1.44.01-1.8,0-3.6.7-5.31,4.02-6.08,10.51-5.99,14.1-2.49,3.5,3.41,3.65,7.42.52,12.84ZM41.22,68.85c-.68-1.31-.81-3.26-2.47-3.88-1.53-.57-3.65-.76-4.7.55-1.31,1.62,1.46.8,1.58,1.81.05.37-.09.92.12,1.09,1.13.97,1.93,2.56,3.7,2.43.97-.07,1.41-.96,1.78-2Z"/>
        <path class="cls-6" d="M26.91,74.2c1.56,1.04,2.18,2.88,3.48,4.15-1.36,1.35-2.45-.15-3.41-.57-2.65-1.17-5.13-2.73-7.66-4.16-.74-.42-1.07-1.11-.94-1.99.25-.8.91-.58,1.48-.6,2.3,1.16,4.5,2.56,7.05,3.17Z"/>
        <path class="cls-11" d="M59.36,44.65c-.07.67-.24,1.34-.2,2.01.09,1.41.91,2.39,2.25,2.67,1.45.3,2.31-.6,2.88-1.87.4-.88.19-2.28,1.78-2.22.95,1.34-.46,2.43-.41,3.67-1.38,1.88-3.18,2.6-5.39,1.74-2.27-.88-2.76-2.71-2.69-5,.09-2.8-.81-5.22-3.7-6.37-2.2-1.64-4.03-.17-5.85.78-2.04,1.07-3.82,1.49-5.15-.95-.24-.44-.6-.85-1.12-.77-.64.11-.99.66-1,1.26-.02.66.15,1.33.23,2-.33,1.52-1.26,2.39-2.83,2.3-1.49-.09-2.46-1.04-2.97-2.38-.45-1.16-.84-2.37-.28-3.63.36.06.73.12,1.1.18,0,0,.07.15.07.15.32,1.53,0,3.98,2.18,3.75,1.89-.2.23-2.49.83-3.71,2.23-2.24,3.2-2.33,5.13,0,1.01,1.23,1.82,1.12,2.97.43,1.96-1.17,4.06-1.87,6.39-1.59,3.27,1.48,5.14,4.05,5.8,7.54Z"/>
        <path class="cls-11" d="M80.34,48.61c.12.32.25.65.37.97-.4.66-.74,1.36-1.2,1.98-.93,1.25-2.14,1.95-3.77,1.58-1.64-.37-2.32-1.58-2.77-3.05-.58-1.92.18-3.85-.14-5.77-.04-.21-.07-.42-.11-.63-.06-.22-.12-.45-.18-.67-.82-2.04-2.14-1.86-3.62-.79-.81.58-1.24,1.82-2.58,1.39.98-2.7,3.04-4.24,5.13-3.59,2.46.77,3.02,2.79,2.94,5.11-.03.67-.34,1.34.05,2-.42,1.74-.15,3.39,1.44,4.31.94.55,1.79-.28,2.25-1.24.66-.63.97-1.73,2.18-1.61Z"/>
        <path class="cls-6" d="M40.99,41.61c-.08-.67-.25-1.33-.23-2,.02-.6.37-1.16,1-1.26.52-.09.88.32,1.12.77,1.33,2.44,3.11,2.02,5.15.95,1.82-.95,3.65-2.42,5.85-.78-4.02,2.28-8.1,4.26-12.89,2.32Z"/>
        <path class="cls-6" d="M66.34,43.63c1.35.42,1.78-.81,2.58-1.39,1.47-1.07,2.8-1.24,3.62.79-2.32-.11-3.45,1.33-4.3,3.22-.52,1.18-.67,2.79-2.58,2.66-.05-1.25,1.36-2.33.41-3.67.09-.54.18-1.07.27-1.61Z"/>
        <path class="cls-12" d="M36.01,38.08c-.37-.06-.73-.12-1.1-.18-.1-.44-.2-.87-.31-1.31.09-1.39-.95-2.64-.54-4.07.36-.62.18-1.23-.03-1.84,2.17,2.06,1.66,4.84,1.97,7.4Z"/>
        <path class="cls-6" d="M72.72,43.7c.04.21.07.42.11.63-.2-.11-.41-.23-.61-.34l.5-.29Z"/>
        <path class="cls-11" d="M25.78,62.4c-.26-1.07-.51-2.13-.77-3.2-.12-.16-.24-.32-.36-.48,0,0,.03.06.03.06.52-3.02-1.2-4.06-3.8-4.34-.51-.17-.99-.38-1.2-.94,3.53-1.15,5.32-.12,6.81,3.9.03,1.72-.37,3.84,1.4,4.69,1.3.62,2.41-.7,3.02-2.01.74-.25,1.27-.77,1.7-1.39.22-.18.44-.36.66-.53v.03c.64.11,1.28.26,1.83-.25h.01c.72.12,1.44.22,2.16.33.2.13.4.26.59.39,2.02,1.37,5.02,1.48,5.79,4.47-1.95.05-3.11-1.53-4.66-2.29-3.31-1.62-4.73-1.48-7.32,1.07-1.22,1.2-2.56,2.06-4.37,1.78l-1.53-1.27Z"/>
        <path class="cls-9" d="M14.68,63.29c-1.52-1.39-3.42-1.9-2.81-4.1.41-1.47,1.05-2.88,2.61-3.2,2.18-.45,4.26.14,6.07,1.49.45.33.59.8.21,1.26-.39.47-.84.83-1.41.15-1.24-1.49-2.01-1.01-2.19.67-.2,1.84-3.88.59-2.49,3.73Z"/>
        <path class="cls-6" d="M25.78,62.4c.51.42,1.02.84,1.53,1.27-.35,1.37-.76,2.74.68,3.78-.7,1.71-.69,3.51-.7,5.31-2.1-.7-4.15-1.51-6.01-2.72,2.51-1.95,3.66-4.7,4.5-7.63Z"/>
        <path class="cls-11" d="M21.28,70.03c1.87,1.21,3.91,2.03,6.01,2.72-.13.48-.25.96-.38,1.44-2.55-.61-4.75-2.01-7.05-3.17.47-.33.95-.66,1.42-.99Z"/>
        <path class="cls-6" d="M20.87,54.45c2.6.28,4.33,1.32,3.8,4.34-1.17-1.46-2.31-2.95-4.03-3.84.03-.18.11-.35.22-.49Z"/>
        <path class="cls-3" d="M20.87,54.45c-.11.15-.19.31-.22.49-1.88.39-3.66.25-5.25-.95.99-.57,2.2.23,3.17-.5.37,0,.74.01,1.1.02.2.56.69.77,1.2.94Z"/>
        <path class="cls-6" d="M24.65,58.73c.12.16.24.32.36.48-.12-.16-.24-.32-.36-.48Z"/>
        <path class="cls-5" d="M19.68,53.51c-.37,0-.74-.02-1.1-.02-2.11-1.26-2.24-3.29-2.09-5.42.32-.81.73-1.61.95-2.45.73-2.71,1.39-2.93,3.66-1.14.36.28.71.23,1.03-.1,5.46,5.42,12.38,8.2,19.47,10.57,11.24,3.75,22.88,5.44,34.67,6.14,2.65,1.33,5.37.09,8.06.13.99.01,2.08-.26,3.14-.22.86.04,2.23-.78,2.31.72.07,1.24-.65,2.49-2.11,2.83-.55.13-1.22.13-1.72-.07-2.26-.9-4.27-.36-5.88,1.22-1.71,1.67-3.6,1.02-5.49.9-1.79-.29-3.69-1.69-5.23.52-.2.12-.41.24-.61.36-1.61-.25-2.28.86-2.92,2.02-1.21.26-2.02-.5-2.91-1.1-.93-5.02-8.3-6.99-12.76-4.55-.79.07-1.58.15-2.36.22-.17-.09-.47-.15-.5-.28-.97-3.36-6.04-6.15-9.39-5.14-.2-.13-.4-.26-.59-.39-.6-.91-1.32-1.06-2.16-.31,0,0-.01-.01-.01-.01-.64-.19-1.3-.44-1.82.26,0,0,0-.03,0-.03-.22.18-.44.36-.66.54-.44.63-.96,1.14-1.7,1.39-1.8-.34-3.75-.46-4.42-2.68-1.49-4.03-3.29-5.06-6.81-3.9Z"/>
        <path class="cls-12" d="M47.47,23.58c2.76,4.25,6.6,5.82,11.54,4.69-.41.93-.81,1.87-1.22,2.8-2.2-.49-4.42-.95-6.62-1.47-1.86-.43-3.55-1.79-5.62-1.02-2.76-1.02-5.52-2.03-8.28-3.04-.22-2.36-1.8-2.64-3.71-2.43-1.18-.44-1.5-1.33-.83-2.28.61-.85,1.64-.49,2.44-.15,3.15,1.33,5.95,3.31,9.01,4.84,2.69,1.35,3.36.71,3.28-1.94Z"/>
        <path class="cls-4" d="M45.55,28.58c2.08-.77,3.76.59,5.62,1.02,2.2.51,4.41.98,6.62,1.47,6.07,1.46,12.18,2.59,18.45,2.63,4.28.64,8.53.28,12.76-.4.57,2.04-1.13,1.69-2.1,1.85-5.07.82-10.14.3-15.2-.13-7.82-.68-15.43-2.42-22.94-4.61-1.2-.35-2.47-.63-3.21-1.82Z"/>
        <path class="cls-2" d="M89.01,33.29c-4.24.67-8.49,1.04-12.76.4,4.01-2.45,8.41-1.71,12.72-1.45.64.04,1.02.65.04,1.05Z"/>
        <path class="cls-2" d="M59.36,44.65c-.66-3.49-2.53-6.06-5.8-7.54,2.32-1.29,4-.03,5.09,1.71,1.07,1.7,3,3.59.71,5.82Z"/>
        <path class="cls-12" d="M39.08,38.28c-.6,1.22,1.06,3.5-.83,3.71-2.17.23-1.85-2.22-2.18-3.75,1,.02,2,.03,3,.05Z"/>
        <path class="cls-12" d="M78.15,50.22c-.47.95-1.31,1.78-2.25,1.24-1.59-.92-1.86-2.57-1.44-4.31,1.14,1.14,1.74,2.92,3.69,3.07Z"/>
        <path class="cls-4" d="M33.57,23.11c1.91-.22,3.49.06,3.71,2.43-1.62-.22-3.03-.76-3.71-2.43Z"/>
        <path class="cls-12" d="M46.72,21.54c.25.67.49,1.34.74,2.01-1.25-.3-1.02-1.15-.74-2.01Z"/>
        <path class="cls-12" d="M46.68,19.97c0,.34,0,.67,0,1.01-.45-.33-.47-.67,0-1.01Z"/>
        <path class="cls-12" d="M59.03,28.31c.25-.18.49-.37.74-.55-.25.18-.49.37-.74.55Z"/>
        <path class="cls-8" d="M47.77,64.07c.79-.07,1.58-.15,2.36-.22,1.22,1.41,2.76.5,4.14.5,5.23-.02,7.34,2.25,6.72,7.36-.07.58-.16,1.18-.08,1.75.25,1.71,1.08,2.97,2.97,3.05,1.83.08,2.81-1.21,2.87-2.71.09-2.34,1.09-4.28,1.97-6.31.2-.12.41-.24.61-.36,2.97.31,5.49,1.8,8.15,2.96.98.43,2.09.48,3.18.27.4,2.46-1.55,3.5-3.06,4.49-6.02,3.93-12.41,5.66-19.65,3.4-3.54-1.1-7.19-1.71-10.16-4.14-1.14-.93-1.8-.5-2.53.65-.72,1.13-.54,2.23-.46,3.39-.73-.11-1.45-.22-2.18-.34,3.13-5.42,2.98-9.43-.52-12.84-3.59-3.5-10.08-3.58-14.1,2.49-1.45-1.04-1.04-2.41-.68-3.78,1.81.28,3.16-.58,4.37-1.78,2.59-2.55,4.01-2.69,7.32-1.07,1.55.76,2.71,2.34,4.66,2.3.91.21,1.77.39,2.39,1.28.61.87,1.27.5,1.72-.32Z"/>
        <path class="cls-9" d="M41.22,68.85c-.37,1.04-.8,1.93-1.78,2-1.77.12-2.58-1.46-3.7-2.43-.2-.17-.07-.72-.12-1.09-.12-1.01-2.89-.19-1.58-1.81,1.06-1.31,3.18-1.12,4.7-.55,1.66.62,1.79,2.57,2.47,3.88Z"/>
        <path class="cls-12" d="M47.77,64.07c-.44.82-1.11,1.19-1.72.32-.62-.89-1.48-1.06-2.39-1.28-.77-2.99-3.77-3.09-5.79-4.47,3.35-1.01,8.43,1.78,9.39,5.15.04.13.33.19.5.28Z"/>
        <path class="cls-12" d="M26.49,57.41c.67,2.22,2.61,2.33,4.42,2.68-.61,1.31-1.72,2.64-3.02,2.01-1.77-.85-1.37-2.97-1.4-4.69Z"/>
        <path class="cls-12" d="M35.12,57.95c.84-.74,1.56-.6,2.16.31-.72-.1-1.44-.21-2.16-.31Z"/>
        <path class="cls-12" d="M33.29,58.19c.52-.69,1.17-.44,1.82-.26-.55.52-1.18.37-1.82.26Z"/>
        <path class="cls-12" d="M32.62,58.7c.22-.18.44-.36.66-.54-.22.18-.44.36-.66.54Z"/>
        <path class="cls-11" d="M68.72,67.48c-.88,2.03-1.88,3.97-1.97,6.31-.06,1.51-1.04,2.79-2.87,2.71-1.89-.08-2.72-1.34-2.97-3.05-.08-.57.01-1.17.08-1.75.62-5.11-1.49-7.39-6.72-7.36-1.38,0-2.91.91-4.14-.5,4.46-2.44,11.83-.47,12.76,4.55,0,1.74-.93,3.43-.32,5.21.23.66.55,1.37,1.34,1.37.86,0,1.02-.78,1.15-1.45.26-1.34.49-2.68.74-4.03.64-1.15,1.31-2.26,2.92-2.02Z"/>
        <path class="cls-12" d="M65.8,69.5c-.24,1.34-.48,2.69-.74,4.03-.13.68-.29,1.46-1.15,1.45-.78,0-1.11-.71-1.34-1.37-.61-1.77.32-3.46.32-5.21.88.6,1.7,1.36,2.91,1.1Z"/>
      </g>
      <path class="cls-11" d="M28.75,65.73c-1.55,3.39-2.7,7.66-.37,11.01s6.88,3.62,10.54,3.47c.88-.04,1.76-.21,2.47-.76.66-.52,1.08-1.26,1.4-2.02.82-1.95,1.37-4.07,1.65-6.17.26-1.93-.1-3.64-1.44-5.1-1.25-1.35-2.93-2.36-4.68-2.91-3.83-1.2-8.2.05-10.4,3.5-.35.54.52,1.05.86.5,1.7-2.67,5-3.9,8.07-3.34s6.7,2.72,6.69,6.09c0,1.84-.55,3.77-1.11,5.51-.49,1.52-1.03,3.34-2.83,3.64-.79.13-1.63.07-2.42.05-.98-.02-1.96-.07-2.93-.23-1.56-.26-3.14-.82-4.3-1.94-3.01-2.89-1.83-7.48-.31-10.79.27-.58-.6-1.09-.86-.5h0Z"/>
      <path class="cls-11" d="M85.78,71.04c-3.6,1.45-6.07,5.28-5.57,9.19.52,4.12,3.84,7.24,7.91,7.75,2.23.28,4.78.08,6.9-.7,1.99-.73,3.46-2.17,4.23-4.14,1.46-3.72.19-8.18-2.7-10.86-3.42-3.16-8.87-3.42-12.65-.75-.52.37-.02,1.24.5.86,2.98-2.1,7.14-2.3,10.25-.33,2.92,1.85,4.63,5.51,4.14,8.94-.26,1.84-1.16,3.67-2.77,4.69-1.7,1.08-3.9,1.33-5.87,1.38s-3.97-.3-5.62-1.45c-1.42-.99-2.5-2.48-3.02-4.12-1.21-3.77.88-8.02,4.54-9.5.59-.24.33-1.21-.27-.96h0Z"/>
      <path class="cls-11" d="M88.98,70.04c-.82-1.09-.45-2.54.39-3.51s2.04-1.54,3.15-2.12c1.32-.69,2.67-1.33,4.19-1.41s3.03.2,4.53.38c1.09.13,2.61.08,3.54.77.99.74-.14,2.1-.11,3.06.02.51.27.96.65,1.29.45.39,1.1.55,1.5,1,.64.72-.24.81-.78.9s-1.01.31-1.39.72c-.47.51-.76,1.17-1.08,1.78-.42.8-.84,1.6-1.26,2.4-.53,1-1.55,3.75-3.15,2.99-.58-.27-1.09.59-.5.86,1.4.66,2.71-.22,3.46-1.4,1.01-1.58,1.78-3.35,2.66-5,.32-.6.64-1.2,1.36-1.36.61-.13,1.26-.11,1.67-.66s.28-1.19-.09-1.7c-.43-.6-1.1-.77-1.66-1.21-.66-.53-.29-1.22-.07-1.88s.32-1.35-.04-1.97c-.61-1.06-1.99-1.25-3.09-1.39-1.8-.23-3.64-.56-5.45-.59s-3.4.55-4.99,1.35c-1.47.75-3.08,1.52-4.08,2.88-.9,1.23-1.18,3.04-.22,4.32.38.51,1.25.01.86-.5h0Z"/>
      <path class="cls-11" d="M87.96,67.12c1.15-1.26,2.92-1.51,4.34-2.36s2.3-2.09,2.05-3.72c-.13-.87-.53-1.66-.82-2.49-.34-.97-.42-1.96-.31-2.98.2-1.92.86-3.85,1.65-5.61.87-1.94,2-3.76,3.36-5.4.41-.49-.3-1.2-.71-.71-2.33,2.81-4.05,6.11-4.93,9.66-.46,1.83-.62,3.7.05,5.5.31.84.79,1.73.76,2.66s-.64,1.59-1.37,2.07c-1.54,1.02-3.48,1.25-4.77,2.66-.43.47.27,1.18.71.71h0Z"/>
    </g>
  </g>
</svg>