<?xml version="1.0" encoding="UTF-8"?>
<svg id="Layer_2" data-name="Layer 2" xmlns="http://www.w3.org/2000/svg" viewBox="0 0 133.54 129.62">
  <defs>
    <style>
      .cls-1 {
        fill: #000;
      }

      .cls-1, .cls-2, .cls-3, .cls-4, .cls-5, .cls-6, .cls-7, .cls-8, .cls-9, .cls-10, .cls-11, .cls-12, .cls-13 {
        stroke-width: 0px;
      }

      .cls-2 {
        fill: #d79684;
      }

      .cls-3 {
        fill: #6f6f6f;
      }

      .cls-4 {
        fill: #424242;
      }

      .cls-5 {
        fill: #4a4f6f;
      }

      .cls-6 {
        fill: #fbfbfb;
      }

      .cls-7 {
        fill: #ebebeb;
      }

      .cls-8 {
        fill: #3d3d3d;
      }

      .cls-9 {
        fill: #ffb15e;
      }

      .cls-10 {
        fill: #d04d4f;
      }

      .cls-11 {
        fill: #999;
      }

      .cls-12 {
        fill: #fff5eb;
      }

      .cls-13 {
        fill: #ffe289;
      }
    </style>
  </defs>
  <g id="Layer_1-2" data-name="Layer 1">
    <g>
      <path class="cls-1" d="M40.97,59.08c13.88.15,26.55,2.23,38.95,6.05,2.34.72,2.7.43,2.47-2.1-.41-4.51,1.12-6.53,5.59-7.16,1.11-.16,1.64-.78,2.13-1.65,4.06-7.2,8.66-14.07,13.75-20.56,3.57-4.54,7.33-8.99,11.95-12.64,2.06-1.63,4-3.41,6.28-4.74,1.24-.72,2.55-1.29,3.97-1.54,2.06-.36,3.75.08,4.72,2.2.51,1.11,1.25,2.1,1.77,3.2,1.25,2.64,1.4,5.25.1,8.01-4.27,9.03-10.44,16.56-17.77,23.27-2.95,2.7-5.82,5.46-9.07,7.8-.73.53-.9,1.43-.96,2.37-.22,3.96-2.21,6.85-5.56,8.84-1.91,1.13-2.04,1.72-.15,2.65,3.93,1.94,7.51,4.39,10.96,7.07,5.78,4.5,10.95,9.44,12.29,17.11.92,5.24-1.49,9.56-4.27,13.58-4.02,5.82-9.67,9.75-16.08,12.57-12.07,5.31-24.77,6.9-37.82,5.98-4.76-.34-9.41-1.42-14.1-2.44-10.19-2.21-19.44-6.46-28.25-11.72-6.38-3.8-12.03-8.62-16.36-14.77C-.01,92.62-1.56,84.1,1.67,75.02c1.91-5.35,6.23-8.48,11.25-10.75,9.21-4.17,19.02-4.99,28.05-5.19ZM7.72,94.2c-.13-.12-.26-.25-.39-.37h-.02c-.13-.22-.25-.45-.38-.67-.07-.09-.16-.15-.27-.18-.18-.18-.37-.36-.55-.54-.03-.12-.11-.2-.22-.26-.33-.39-.66-.78-1-1.17l-.09-.13c-.08-.07-.14-.15-.19-.25-.07-.17-.15-.34-.22-.51-.1-.11-.2-.21-.29-.32l-.08-.11c-.08-.13-.16-.26-.24-.39-.42-.84-.84-1.67-1.27-2.51-.14.06-.27.11-.41.17.26.96.52,1.92.77,2.89,1.48,5.66,4.63,10.35,8.6,14.52,7.41,7.78,16.81,12.55,26.4,16.82,6.43,2.86,13.27,4.69,20.37,5.47,8.13.89,16.2,1.16,24.31-.02,7.99-1.16,15.6-3.42,22.7-7.34,3.48-1.92,5.2-3.2,6.07-4.79-.41.13-.73.2-1.03.32-7.98,3.4-16.37,4.69-24.97,4.97-11.81.38-23.41-1.14-34.85-3.95-.37-.05-.74-.1-1.12-.15l.04.02c-6.27-1.92-12.52-3.87-18.56-6.47-3.98-1.72-7.68-3.97-11.61-5.78h.01c-.22-.56-.68-.76-1.24-.81h.02c-.14-.15-.28-.31-.42-.47-3.12-2.3-6.36-4.46-9.08-7.27-.13-.13-.26-.26-.39-.38-.13-.1-.26-.19-.4-.29,0,0-.03-.03-.03-.03ZM110.1,112.47c.21-.06.43-.12.42-.41h-.01c.5.12.89-.07,1.23-.41h0c.39-.15.88-.2.83-.8h0c3.37-1.14,5.4-3.73,6.86-6.74,2.47-5.09.74-9.7-2.19-13.95-4.3-6.24-10.32-10.55-16.85-14.15-15.71-8.67-32.68-13.07-50.47-14.49-10.28-.82-20.5-.41-30.47,2.53-5.33,1.57-10.37,3.76-13.95,8.29-3.46,4.36-3.48,10.63-.13,14.88h0c-.04.41.14.73.41,1.01,1.75,3.4,4.78,5.65,7.46,8.21.31.29.67,1.12,1.29.52.51-.49-.05-1-.28-1.45-3.05-5.91-1.44-11.58,4.26-15.04,6.28-3.81,13.3-4.99,20.44-5.39,6.22-.35,12.46-.17,18.67.72,13.34,1.92,26.18,5.36,37.69,12.65,4.19,2.65,8.08,5.74,10.38,10.35,2.47,4.95,1.16,10.17-3.24,13.58-2.72,2.11-6.02,2.94-9.4,4.51.69.07,1.02.16,1.33.12,4.26-.51,8.4-1.53,12.46-2.86.8-.26,1.76-.37,2.25-1.25.39-.03.77-.08,1.04-.42h0ZM84.36,66.57l.61.23h.11s.11.02.11.02c2.93,1.2,5.86,2.4,8.79,3.6.6.25,1.23.78,1.86.18.62-.59.43-1.37.25-2.1-.98-3.89-5.18-7.23-10.09-4.92-.99.75-2.15,1.41-1.65,2.99ZM118.23,21.97h-.01c-1.31.21-2.01,1.29-2.85,2.1-9.39,9.05-16.67,19.7-23.22,30.87-1.09,1.86-2.39,2.94-4.6,3.07-2.34.14-3.17,1.34-2.9,3.88.56-.3,1.08-.57,1.61-.85,5.59-.84,9.73.91,11.69,6.55.21.6.62.97,1.22.51,1.22-.93,2.33-1.98,1.78-3.74-.36-1.16-.79-2.31-1.24-3.44-.7-1.77-.41-3.17,1.05-4.54,3.3-3.11,6.5-6.34,9.67-9.59,5.12-5.24,9.82-10.83,13.81-17,1.96-3.04,3.63-6.22,4.49-9.74.68-2.75-.62-3.93-3.32-3.12-1.97.6-3.67,1.71-5.24,3.02-.62.7-1.79.87-1.94,2.01ZM76.32,116.57c2.19.01,5.37.01,8.54-.44,5.61-.81,11.08-2,15.84-5.3,4.06-2.81,5.28-7.49,2.98-11.39-2.29-3.88-5.54-6.84-9.3-9.18-8.43-5.25-17.63-8.53-27.33-10.59-6.7-1.42-13.42-2.54-20.28-2.66-4.75-.08-9.48.09-14.18.84-5.26.85-10.3,2.29-14.59,5.68-3.24,2.56-4.26,6.89-2.32,10.37,1.72,3.07,4.15,5.52,6.92,7.62,5.68,4.31,12.09,7.31,18.8,9.5,10.99,3.6,22.29,5.7,34.92,5.56ZM102.65,61.85c-.01-1.95.92-3.27,2.39-4.48,5.61-4.59,11.12-9.31,15.78-14.9,4.26-5.11,8.22-10.41,10.52-16.77.55-1.52.13-2.79-.73-4.39-.55,1.74-.97,3.16-1.65,4.49-3.55,6.93-8.34,12.97-13.52,18.71-3.82,4.23-7.7,8.39-11.93,12.21-2.38,2.16-2.49,2.12-.86,5.12Z"/>
      <path class="cls-1" d="M63.37,43c-4.16.04-8.29-.36-12.26-1.6-2.63-.82-4.89-.32-7.23.85-3.26,1.62-6.11,3.91-9.31,5.62-4.52,2.41-9.21,4.3-14.34,4.91-3.03.36-5.99.08-8.77-1.16-5.09-2.27-7.52-7.81-5.94-13.69.92-3.41,2.56-6.38,5.15-9.01,1.8-1.83,3.66-3.53,5.62-5.17,1.09-.91,1.34-2.27,1.72-3.58,2.27-7.92,6.05-14.8,13.93-18.38,3.59-1.63,7.46-2.09,11.53-1.59,7.03.87,13.53,3.76,20.48,4.87,4.78.76,9.39.71,13.97-1.22,3.58-1.51,7.41-2.42,11.33-1.93,10.23,1.28,14.78,8.28,12.86,18.02-1.17,5.95-4.83,10.39-9.62,13.9-3.51,2.57-7.51,4.09-11.57,5.69-4.88,1.92-9.77,3.03-14.91,3.46-.88.07-1.76.01-2.65.01ZM64.63,7.4c-5.24-1.07-10.31-2.73-15.42-4.24-4.96-1.47-10.04-2.05-15.02-.21-7.25,2.67-11.09,8.57-13.56,15.42-1.28,3.56-2.33,6.9-5.78,9.23-3.59,2.42-5.98,6.05-7.23,10.29-1.93,6.57,1.52,11.32,6.49,12.54,4.53,1.11,8.83.15,13.02-1.58,2.18-.34,4.08-1.43,5.94-2.49,3.18-1.81,6.28-3.76,9.43-5.62,3.01-1.77,6.16-2.43,9.54-1.11,2.11.82,4.35,1.45,6.55,1.43,5.46-.04,10.96.56,16.34-1.41,4.07-1.5,8.27-2.66,12.1-4.72,6.17-3.32,11.09-7.82,13.02-14.87,2.25-8.19-2.11-14.92-10.47-16.16-3.51-.52-6.87.33-10.12,1.49-3.84,1.37-7.66,2.61-11.82,2.14-1-.11-2.02-.09-3.03-.13Z"/>
      <path class="cls-3" d="M76.32,116.57c-12.63.14-23.93-1.97-34.92-5.56-6.71-2.19-13.12-5.19-18.8-9.5-2.77-2.1-5.2-4.54-6.92-7.62-1.94-3.48-.93-7.81,2.32-10.37,4.3-3.39,9.33-4.83,14.59-5.68,4.69-.75,9.43-.92,14.18-.84,6.87.11,13.58,1.23,20.28,2.66,9.7,2.06,18.9,5.35,27.33,10.59,3.76,2.34,7.02,5.3,9.3,9.18,2.3,3.9,1.08,8.58-2.98,11.39-4.77,3.3-10.24,4.5-15.84,5.3-3.17.46-6.35.46-8.54.44Z"/>
      <path class="cls-3" d="M109.07,112.88c-.49.88-1.45.99-2.25,1.25-4.07,1.33-8.21,2.35-12.46,2.86-.31.04-.64-.05-1.33-.12,3.38-1.57,6.68-2.4,9.4-4.51,4.4-3.41,5.72-8.62,3.24-13.58-2.3-4.61-6.19-7.7-10.38-10.35-11.51-7.29-24.35-10.73-37.69-12.65-6.21-.89-12.44-1.07-18.67-.72-7.14.4-14.15,1.57-20.44,5.39-5.7,3.46-7.31,9.13-4.26,15.04.23.45.79.96.28,1.45-.62.6-.98-.22-1.29-.52-2.68-2.56-5.7-4.81-7.46-8.21.01-.4.05-.81-.41-1.01,0,0,0,0,0,0,.14-.98-.38-1.84-.55-2.77-.7-3.72-.12-7.1,2.25-10.18,2.55-3.3,6.04-5.21,9.75-6.73,6.67-2.73,13.74-3.69,20.88-3.99,13.48-.58,26.73,1.07,39.59,5.06,14.32,4.45,28.25,9.69,37.99,22.19,2.98,3.82,5.08,10.94,1.1,16.18-1.13,1.49-2.87,2.27-3.81,3.88,0,0,0,0,0,0-.52.02-.85.23-.83.81h0c-.46-.02-.95-.1-1.23.41,0,0,.01-.01.01-.01-.14.14-.28.27-.42.41,0,0,0,0,0,0-.4.01-.79.04-1.04.42Z"/>
      <path class="cls-8" d="M4.9,91.01c.33.39.66.78,1,1.17.01.13.09.22.22.26.18.18.37.36.55.54.04.13.13.19.27.19.13.22.25.45.38.67,0,0,.02,0,.02,0,.13.12.26.25.39.37,0,0,.03.03.03.03.13.1.26.19.39.29-.17.24-.19.52.06.68.25.15.31-.08.33-.29,2.72,2.8,5.96,4.96,9.08,7.27-.34.58.09.49.42.49,0,0-.02-.01-.02-.01.09.76.61.88,1.24.83,0,0-.01-.01-.01-.01.05.99.88,1.31,1.53,1.73,2.68,1.69,5.41,3.31,8.32,4.6,6.5,2.9,13.19,5.14,20.31,5.92,0,0-.04-.02-.04-.02.33.37.7.41,1.12.15,11.45,2.81,23.04,4.34,34.85,3.95,8.6-.28,17-1.56,24.97-4.97.3-.13.62-.2,1.03-.32-.87,1.59-2.58,2.87-6.07,4.79-7.1,3.92-14.71,6.17-22.7,7.34-8.11,1.18-16.18.91-24.31.02-7.11-.78-13.95-2.61-20.37-5.47-9.59-4.27-18.99-9.04-26.4-16.82-3.98-4.18-7.13-8.86-8.6-14.52.4-.01.68-.23.9-.55.08.13.16.26.24.38,0,0-.03.11-.03.11h.11c.1.11.2.22.29.33-.15.27-.12.46.22.51.04.1.1.18.18.25,0,0-.02.11-.02.11l.11.02Z"/>
      <path class="cls-3" d="M120.18,19.96c1.57-1.31,3.26-2.43,5.24-3.02,2.69-.81,4,.37,3.32,3.12-.87,3.52-2.53,6.7-4.49,9.74-3.98,6.17-8.69,11.76-13.81,17-3.17,3.25-6.37,6.48-9.67,9.59-1.46,1.37-1.75,2.77-1.05,4.54.45,1.13.87,2.28,1.24,3.44.55,1.77-.56,2.81-1.78,3.74-.6.46-1.01.09-1.22-.51-1.97-5.63-6.11-7.38-11.69-6.55.65-1.7,2.15-2.15,3.7-2.46,1.78-.35,3.03-1.23,3.87-2.91,1.17-2.36,2.5-4.64,3.88-6.89,4.74-7.76,10.34-14.86,16.31-21.71,1.44-1.66,3.4-2.92,4.22-5.1,0,0,.01-.01.01-.01.99-.34,1.85-.8,1.94-2.01ZM115.81,29.7c-.14,2.09.93,3.05,2.64,2.09,3.88-2.16,6.48-5.48,7.87-9.69.29-.86.05-1.79-.69-2.41-.84-.7-1.72-.27-2.46.17-2.44,1.46-4.19,3.59-5.71,5.96-.77,1.21-1.53,2.4-1.65,3.88Z"/>
      <path class="cls-11" d="M112.56,110.85c.94-1.61,2.68-2.39,3.81-3.88,3.98-5.23,1.88-12.36-1.1-16.18-9.74-12.51-23.67-17.75-37.99-22.19-12.86-3.99-26.11-5.64-39.59-5.06-7.14.31-14.21,1.26-20.88,3.99-3.71,1.52-7.21,3.43-9.75,6.73-2.37,3.07-2.95,6.46-2.25,10.18.17.92.69,1.78.55,2.77-3.35-4.25-3.33-10.52.13-14.88,3.59-4.53,8.62-6.71,13.95-8.29,9.97-2.94,20.19-3.35,30.47-2.53,17.79,1.42,34.76,5.82,50.47,14.49,6.52,3.6,12.54,7.91,16.85,14.15,2.93,4.25,4.66,8.85,2.19,13.95-1.46,3.01-3.49,5.61-6.86,6.75Z"/>
      <path class="cls-4" d="M102.65,61.85c-1.63-3.01-1.53-2.97.86-5.12,4.22-3.82,8.11-7.99,11.93-12.21,5.19-5.74,9.97-11.78,13.52-18.71.68-1.33,1.1-2.75,1.65-4.49.86,1.6,1.28,2.87.73,4.39-2.3,6.35-6.26,11.66-10.52,16.77-4.66,5.59-10.17,10.31-15.78,14.9-1.47,1.2-2.4,2.53-2.39,4.48Z"/>
      <path class="cls-11" d="M118.22,21.98c-.83,2.17-2.78,3.44-4.22,5.1-5.96,6.85-11.57,13.95-16.31,21.71-1.37,2.25-2.7,4.54-3.88,6.89-.84,1.68-2.08,2.56-3.87,2.91-1.55.3-3.05.76-3.7,2.46-.52.27-1.04.55-1.61.85-.27-2.54.56-3.74,2.9-3.88,2.21-.13,3.51-1.21,4.6-3.07,6.56-11.18,13.84-21.82,23.22-30.87.84-.81,1.54-1.89,2.85-2.09Z"/>
      <path class="cls-3" d="M86,63.58c4.91-2.31,9.12,1.04,10.09,4.92.18.73.37,1.51-.25,2.1-.63.6-1.26.07-1.86-.18-2.93-1.2-5.86-2.4-8.79-3.6-.06-1.16,1.11-2.02.81-3.24Z"/>
      <path class="cls-2" d="M86,63.58c.3,1.22-.87,2.08-.81,3.24,0,0-.11-.03-.11-.03,0,0-.11.01-.12.01-.2-.08-.41-.16-.61-.23-.51-1.58.66-2.24,1.65-2.99Z"/>
      <path class="cls-5" d="M3.78,89.3c-.22.32-.49.54-.9.55-.26-.96-.52-1.93-.77-2.89.14-.06.27-.11.41-.17.42.84.84,1.67,1.27,2.51Z"/>
      <path class="cls-5" d="M8.54,94.9c-.02.21-.08.44-.33.29-.25-.15-.24-.43-.06-.68.13.13.26.26.39.38Z"/>
      <path class="cls-2" d="M19.26,103.47c-.63.06-1.15-.07-1.24-.83.56.05,1.03.25,1.24.83Z"/>
      <path class="cls-2" d="M111.74,111.65c-.02-.58.3-.79.83-.81.06.61-.44.66-.83.81Z"/>
      <path class="cls-2" d="M110.51,112.07c.28-.52.77-.43,1.23-.42-.34.34-.73.53-1.23.42Z"/>
      <path class="cls-2" d="M50.49,115.84c-.41.26-.79.22-1.12-.15.37.05.74.1,1.12.15Z"/>
      <path class="cls-2" d="M5.37,87.2c.46.2.43.61.41,1.01-.27-.28-.45-.6-.41-1.01Z"/>
      <path class="cls-5" d="M4.62,90.62c-.35-.05-.37-.24-.22-.51.08.17.15.34.22.51Z"/>
      <path class="cls-2" d="M18.04,102.66c-.33,0-.77.09-.42-.49.14.16.28.33.42.49Z"/>
      <path class="cls-2" d="M109.07,112.88c.25-.38.64-.4,1.04-.42-.27.34-.65.39-1.04.42Z"/>
      <polygon class="cls-5" points="4.11 89.8 4 89.79 4.03 89.68 4.11 89.8"/>
      <polygon class="cls-5" points="4.9 91.01 4.79 90.99 4.81 90.88 4.9 91.01"/>
      <path class="cls-5" d="M6.11,92.44c-.13-.04-.21-.12-.22-.26.11.05.18.14.22.26Z"/>
      <path class="cls-5" d="M6.93,93.16c-.14,0-.23-.05-.27-.19.11.03.2.09.27.19Z"/>
      <path class="cls-5" d="M7.33,93.83s-.02,0-.02,0c0,0,.02,0,.02,0Z"/>
      <path class="cls-2" d="M110.1,112.47c.14-.14.28-.27.42-.41,0,.29-.21.35-.42.41Z"/>
      <path class="cls-5" d="M84.36,66.57c.2.08.41.16.61.23-.2-.08-.41-.16-.61-.23Z"/>
      <path class="cls-5" d="M7.75,94.23s-.04-.03-.03-.03.03.03.03.03Z"/>
      <path class="cls-6" d="M27.13,48.84c-4.2,1.72-8.5,2.69-13.02,1.58-4.96-1.22-8.42-5.97-6.49-12.54,1.25-4.25,3.64-7.87,7.23-10.29,3.45-2.33,4.5-5.66,5.78-9.23,2.47-6.85,6.31-12.75,13.56-15.42,4.98-1.84,10.05-1.25,15.02.21,5.11,1.51,10.18,3.17,15.42,4.24,1.27,1.38,3.04,1.2,4.65,1.37,5.79.6,11.49-.06,17.17-1.25,3.33-.7,6.23.37,8.24,3.19,2.09,2.93,2.07,6.05.4,9.21-.74,1.4-1.72,2.6-2.77,3.76-7.84,8.75-17.41,13.94-29.37,14.03-5.23.04-10.46-.02-15.68-.19-2.9-.09-5.31.85-7.47,2.65-2.67,2.22-5.6,4.06-8.5,5.95-1.39.91-3.12,1.3-4.16,2.73ZM50.74,29.86c.69.98,1.77.84,2.74.86,5.7.17,10.66-1.87,14.91-5.51,4.55-3.89,4.1-10.38-.87-13.73-1.47-.99-2.92-2.32-4.97-1.94-8.07-2.89-15.65-1.93-22.31,3.49-5.37,4.36-4.61,11.51,1.27,14.43,2.89,1.44,5.95,2.37,9.23,2.39Z"/>
      <path class="cls-7" d="M27.13,48.84c1.04-1.43,2.77-1.83,4.16-2.73,2.9-1.89,5.83-3.73,8.5-5.95,2.17-1.8,4.58-2.75,7.47-2.65,5.22.17,10.45.23,15.68.19,11.96-.09,21.52-5.28,29.37-14.03,1.04-1.16,2.03-2.36,2.77-3.76,1.67-3.16,1.7-6.28-.4-9.21-2.01-2.81-4.91-3.89-8.24-3.19-5.68,1.2-11.38,1.86-17.17,1.25-1.6-.17-3.37.01-4.65-1.37,1.01.04,2.03.02,3.03.13,4.16.47,7.98-.77,11.82-2.14,3.25-1.16,6.61-2.01,10.12-1.49,8.35,1.24,12.72,7.97,10.47,16.16-1.94,7.04-6.85,11.55-13.02,14.87-3.83,2.06-8.04,3.22-12.1,4.72-5.37,1.98-10.87,1.38-16.34,1.41-2.19.02-4.44-.62-6.55-1.43-3.38-1.31-6.53-.66-9.54,1.11-3.15,1.86-6.25,3.81-9.43,5.62-1.87,1.06-3.76,2.15-5.94,2.49Z"/>
      <path class="cls-8" d="M115.81,29.7c.12-1.47.88-2.67,1.65-3.88,1.52-2.37,3.27-4.5,5.71-5.96.74-.44,1.62-.87,2.46-.17.75.63.98,1.55.69,2.41-1.39,4.21-3.98,7.53-7.87,9.69-1.71.95-2.78,0-2.64-2.1Z"/>
      <path class="cls-1" d="M50.74,29.86c-3.28-.01-6.33-.95-9.23-2.39-5.89-2.92-6.64-10.07-1.27-14.43,6.67-5.42,14.24-6.38,22.31-3.49.67.44,1.36.85,2.02,1.32,4.46,3.15,5.16,8.07,1.74,12.32-1.33,1.66-3.01,2.9-4.87,3.91-3.34,1.81-6.99,2.4-10.7,2.77ZM63.8,12.88c-.18-.09-.37-.17-.55-.26-1.58-1.65-3.69-1.97-5.79-2.33-6.21-.86-11.82.43-16.49,4.79-1.23,1.15-2.3,2.5-2.07,4.4-.21,3.36,1.8,5.96,5.85,7.23,5.72,1.79,11.32,1.05,16.52-1.68,4.2-2.21,5.91-5.45,4.47-9.6-.04-.91-.56-1.51-1.27-2-.22-.19-.44-.37-.67-.56Z"/>
      <path class="cls-7" d="M50.74,29.86c3.71-.37,7.36-.95,10.7-2.77,1.86-1.01,3.54-2.25,4.87-3.91,3.42-4.25,2.72-9.17-1.74-12.32-.66-.46-1.35-.88-2.02-1.32,2.06-.38,3.5.95,4.97,1.94,4.97,3.35,5.42,9.84.87,13.73-4.25,3.63-9.21,5.68-14.91,5.51-.97-.03-2.05.11-2.74-.86Z"/>
      <path class="cls-13" d="M65.74,15.44c1.44,4.14-.27,7.39-4.47,9.6-5.2,2.74-10.8,3.47-16.52,1.68-4.05-1.26-6.06-3.87-5.85-7.23,2.99-5.58,7.86-8.04,13.96-8.71,1.53-.17,3.13.21,4.59-.49,2.1.35,4.21.67,5.79,2.33l-.02.02c-1.07.14-1.84-.76-2.85-.83-.09-.08-.18-.17-.27-.25-.04.07-.09.14-.13.2.12.03.24.06.36.09.15.86.38,1.72.44,2.59.35,4.74-4.23,9.21-9.6,9.63-4.44.35-8.21-1.1-11.81-4.15.3,2.22,1.26,3.53,2.78,4.58,3.18,2.2,6.71,2.56,10.45,2.4,3.84-.16,7.13-1.58,10.03-3.91,2.3-1.84,3.57-4.25,2.83-7.34.09-.08.17-.15.26-.23ZM45.89,17.12c.95-.16,1.92-.6,2.51-1.59.3-.51.14-1.14-.4-1.42-1.09-.56-2.1-.29-2.95.57-.05.05-.11.08-.16.13-.46.49-1.72.48-1.33,1.46.31.78,1.35.76,2.33.85ZM51.57,13.55c-.11-.54-.56-.51-.95-.5-.46,0-1.04-.02-1.05.63,0,.51.49.56.9.55.48-.01.94-.1,1.09-.68Z"/>
      <path class="cls-12" d="M57.46,10.29c-1.47.7-3.07.32-4.59.49-6.1.67-10.97,3.13-13.96,8.71-.23-1.9.84-3.25,2.07-4.4,4.67-4.36,10.28-5.65,16.49-4.79Z"/>
      <path class="cls-2" d="M64.47,13.44c.7.49,1.23,1.09,1.27,2-.09.07-.17.15-.26.22-.74-.55-1.24-1.21-1.02-2.21h.01Z"/>
      <path class="cls-2" d="M63.81,12.88c.22.19.44.37.66.56,0,0-.01.01-.01.01-.37.07-.65-.04-.83-.38.06-.06.12-.13.18-.19Z"/>
      <path class="cls-2" d="M63.26,12.62c.18.09.37.17.55.26-.06.06-.12.13-.18.19-.13-.14-.26-.28-.39-.43l.02-.02Z"/>
      <path class="cls-9" d="M63.23,12.64c.13.14.26.28.39.43.18.34.46.46.83.38-.22,1,.28,1.66,1.02,2.21.73,3.1-.54,5.5-2.84,7.34-2.9,2.33-6.19,3.75-10.03,3.91-3.75.16-7.27-.2-10.45-2.4-1.52-1.05-2.47-2.36-2.78-4.58,3.6,3.04,7.37,4.49,11.81,4.15,5.37-.42,9.95-4.89,9.6-9.63-.06-.87-.29-1.73-.44-2.59l.03-.05c1.01.07,1.78.97,2.85.83Z"/>
      <path class="cls-12" d="M45.89,17.12c-.99-.1-2.02-.07-2.33-.85-.39-.98.87-.96,1.33-1.46.05-.05.11-.08.16-.13.86-.86,1.86-1.13,2.95-.57.54.28.7.91.4,1.42-.58.99-1.56,1.43-2.51,1.59Z"/>
      <path class="cls-12" d="M51.57,13.55c-.15.58-.6.67-1.09.68-.41,0-.9-.05-.9-.55,0-.65.58-.63,1.05-.63.39,0,.83-.03.95.5Z"/>
      <path class="cls-10" d="M60.35,11.86c-.12-.03-.24-.06-.36-.09.04-.07.09-.14.13-.2.09.08.18.17.27.25,0,0-.03.05-.03.05Z"/>
    </g>
  </g>
</svg>