<?xml version="1.0" encoding="UTF-8"?>
<svg id="Layer_2" data-name="Layer 2" xmlns="http://www.w3.org/2000/svg" viewBox="0 0 78.61 95.64">
  <defs>
    <style>
      .cls-1 {
        fill: #65646f;
      }

      .cls-1, .cls-2, .cls-3, .cls-4, .cls-5, .cls-6, .cls-7, .cls-8, .cls-9, .cls-10, .cls-11, .cls-12, .cls-13, .cls-14 {
        stroke-width: 0px;
      }

      .cls-2 {
        fill: #e4b79b;
      }

      .cls-3 {
        fill: #805c50;
      }

      .cls-4 {
        fill: #915a43;
      }

      .cls-5 {
        fill: #f2d0b9;
      }

      .cls-6 {
        fill: #e0a382;
      }

      .cls-7 {
        fill: #faefd4;
      }

      .cls-8 {
        fill: #f4ddcb;
      }

      .cls-9 {
        fill: #a7b76c;
      }

      .cls-10 {
        fill: #8fb4cf;
      }

      .cls-11 {
        fill: #9b6b54;
      }

      .cls-12 {
        fill: #9bc8e2;
      }

      .cls-13 {
        fill: #c1896b;
      }

      .cls-14 {
        fill: #271c15;
      }
    </style>
  </defs>
  <g id="Layer_1-2" data-name="Layer 1">
    <g>
      <path class="cls-12" d="M47.51,32.86c2.1.77,7.11,1.18,8.58,2.89,1.27,1.48,1.07.47.14,1.61-.86,1.06-4.7.85-5.93.91-7.82.41-15.37-.76-22.8-3.19v10.61c8.02-2.24,14.78,6.64,20.79,10.51,2.98,1.92,6.28,3.37,9.8,3.92,1.81.28,3.53.34,5.35.15.72-.07,4.9-.7,4.03-1.03l-3.29-2.53.4.72,7.53-7.53c-4.2-2.81-12.78-8.09-12.86-13.81-.05-3.42,2.57-6.87,3.93-9.9,1.28-2.86,1.98-5.53,2.37-8.64h-11c.19,5.05-2.36,9.69-7.56,10.95-4.54,1.1-9.11-.62-12.27,3.93-2.52,3.63-1.04,8.31,2.21,10.88,4.21,3.32,10.09,3.64,15.01,1.98,6.68-2.24,3.81-12.87-2.92-10.61-1.01.47-2.07.69-3.18.64-2.55-1.14-3.6.32-3.17,4.37.78.59,3.35.01,4.37-.11,3.63-.42,7.03-1.74,9.98-3.89,5.81-4.25,8.8-11.02,8.54-18.15s-10.14-6.86-11,0c-.53,4.23-3.56,7.91-4.97,11.87-1.49,4.21-1.79,8.52-.13,12.72,2.95,7.46,10.67,12.96,17.11,17.26,4.76,3.18,10.05-2.95,7.53-7.53-2.58-4.67-6.29-3.46-10.59-2.71-5.12.89-9.22-1.95-13.09-4.96-7.68-5.98-15.54-12-25.84-9.12-5.39,1.51-5.06,8.95,0,10.61,6.83,2.24,13.97,3.53,21.17,3.67,6.17.11,13.88.05,18.68-4.43,4.16-3.88,4.8-9.77,1.65-14.47-3.65-5.43-9.95-6.13-15.63-8.2-6.66-2.43-9.53,8.2-2.92,10.61h0Z"/>
      <g>
        <path class="cls-14" d="M4.53,46.33c1.65-1.32,1.17-3.34,1.62-5.05.18-.69.02-1.44.8-1.83.67.91.21,2.79,2.19,2.6.97-.09,1.64-.61,1.69-1.6.07-1.48-.47-2.51-2.22-2.32.49-1,.99-2,1.48-3.01.3-.32.6-.64.9-.96,2.31-.07,4.13-1.52,6.2-2.26,1.33-.47,1.61-1.55.88-2.81.66-.88,1.32-1.77,1.98-2.65.49-.35.99-.7,1.48-1.05.32.05.64.11.97.16.46,1.53-1.06,2.36-1.3,3.64-1.78,1.89-1.67,3.23.89,4.4,1.3.59,3.14.94,3.32,2.94-2.01.14-3.28-1.39-4.86-2.19-2.48-1.25-8.04.23-9.33,2.58-.34.62.02.91.28,1.38,1.27,2.32.5,4.07-1.65,5.36-.88-.13-1.97-.92-2.45.44-.33.91.31,1.6,1.1,2.09.93.58,1.57,1.44,2.09,2.38.63,1.12,1.24,1.72,2.77,1.08,2.63-1.1,5.12-.39,6.93,1.76.9,1.06,1.48,1.09,2.58.46,2.31-1.32,5.07-1.58,6.98.04,2.57,2.19,4.81,3.61,8.35,2.51,1.63-.51,3.28.86,4.38,2.21.93,1.14,1.67,1.08,2.95.51,3.98-1.78,6.28-1.19,9.32,2.18.61.67,1.1,1.37,2.1.9,3.16-1.47,5.81-.68,8.07,1.8,1.17,1.28,1.87-.11,2.75-.4,1.14-.37,1.93-.94,1.08-2.27.94-.32,1.87-.27,2.8.03,1.06,2.62,1.99,2.88,3.6.99,2.01-2.36,2.33-6.64.64-9.68-.9-1.62-1.91-3.01-4.28-2.28-1.31.4-2.84.26-4.63-.57,1.55-.9,2.72-1.58,3.89-2.26.02,1.67,1.32,1.54,2.15,1.17,1.39-.63,1.07-1.76.25-2.77,1.42-5.25-1.01-10.27-5.86-12.25-.21-.08-.18-.74-.26-1.12,2.49.37,2.87-.69,1.82-2.71,2-3.33.63-10.48-2.84-14.73-.01-.16-.03-.31-.06-.47.17-.5.33-1.01.5-1.51,4.03,4.61,5.35,10.07,4.82,16.01-.22,2.4-.08,4.43,1.42,6.54,2.07,2.9,3.01,6.32,2.6,9.98-.21,1.94.11,3.64,1.21,5.38,3.3,5.24,2.42,10.06-1.93,14.34-.62-.14-1.24-.28-1.87-.43-2.62-1.15-4.6-.05-6.39,1.78-.62-.16-1.24-.31-1.86-.47-2.49-3.79-4.08-4.13-8.48-1.83-.52-.15-1.04-.3-1.57-.45-2.34-4.8-5.48-5.54-10.03-2.36-.6-.13-1.2-.27-1.81-.4-2.99-3.9-4.02-4.14-8.82-2.07-.59-.14-1.18-.28-1.77-.41-3.55-4.74-4.88-5.06-10.11-2.36-.58-.14-1.17-.28-1.75-.42-2.58-3.77-4.27-4.16-8.22-1.9l-1.81-.45c-.68-2.55-2.05-4.32-4.94-4.39-.25-.31-.5-.63-.74-.94Z"/>
        <path class="cls-14" d="M22.49,25.56c-.32-.05-.64-.11-.97-.16.92-2.79-1.26-3.94-2.84-5.41.05-.38.11-.76.16-1.14.9-.15,1.14-.86,1.33-1.6-.07-1.99,2.71-4.63-1.31-5.72h0c-1.81-3.45-5.05-3.86-8.43-4.13-1.67-.13-2.06.71-2.07,2.04-.06,5.82,1.47,10.94,6.68,14.27,1.6,1.02,3.33,1.84,5,2.75-.66.88-1.32,1.77-1.98,2.65-.84.67-1.47,1.71-2.59,1.71-1.05-1.05,1.5-2.32-.46-3.04-1.2-.44-2.48-.71-3.44.59-.19.25-.38.51-.62.72-.58.51-1.07,1.66-1.99.92-.66-.53.19-1.34.32-2.03.12-.12.37-.29.35-.37-.12-.41-.39-.23-.63-.09-1.15-.14-2.04-.45-1.24-1.88,2.81.73,2.67-1.09,2.52-2.92.08-.01.17-.01.23-.05.04-.02.05-.1.07-.15-.1.07-.19.15-.29.22-1.49-.45-2.83-.28-3.89.99-5.31,1.6-5.65,3.03-1.8,6.81,1.83,1.79,4.27,2.38,6.36,3.64-.3.32-.6.64-.9.96-3.99-1.05-6.95-3.45-9.37-6.76-1.19-1.63-.82-2.64.53-3.73,1.33-1.08,2.64-2.35,4.31-2.69,3.64-.75,3.7-2.5,2.25-5.44-1.28-2.62-1.2-5.55-.65-8.46.35-1.88,1.26-2.43,3.06-2.3,3.62.26,6.93,1.37,9.68,3.71,1.49,1.27,2.17,1.52,3.1-.58.94-2.12,2.26-4.13,3.73-5.93,2.9-3.54,6.48-3.86,10.12-1.1,2.49,1.89,4.41,4.31,6.2,6.84.55,1.37,1.1,2.73,1.65,4.1-.4-.02-.8-.05-1.21-.07-2.4-3.88-4.53-8-8.75-10.35-1.41-.79-2.77-1.41-3.58.73-.47.34-.93.68-1.4,1.03-.77-.83-1.37-.55-2.05.2-1.71,1.88-3.07,3.93-3.61,6.45-.17.2-.33.4-.5.61-.21.79-.41,1.59-.62,2.38-1.24,5.01-.9,6.3,2.08,7.83-.11.79-.22,1.57-.33,2.36-.92.3-1.96.43-2.25,1.61ZM12.5,24.2c.5,2.03,1.68,2.05,3.2,2.17-.87-1.12-1.58-1.88-3.2-2.17Z"/>
        <path class="cls-14" d="M72.81,63.01c.62.14,1.24.28,1.87.43.74,1.55.16,2.88-.64,4.22-5.12,8.51-10.27,16.99-15.28,25.56-1.01,1.72-2.25,2.32-4.1,2.39-9.28.36-18.25-1.62-27.16-3.79-6.21-1.52-12.32-3.42-18.18-6.1-3.15-1.44-4.91-3.22-5.05-7.13-.34-9.17-1.35-18.31-2.09-27.46-.16-2.01-.16-3.92,2.25-4.67.11.3.23.6.34.91-.62,1.03-1.02,2.18-.93,3.35.74,9.98,1.5,19.96,2.36,29.93.2,2.35,2.92,3.79,5.18,3.01.42.09.84.17,1.26.26,1.36,2.57,3.84,3.71,5.93,2.72.39.09.78.19,1.17.28,1.51,2.53,3.9,2.46,6.37,2.14.48.11.96.22,1.44.34,2.09,1.4,4.21,2.64,6.72.92.38.09.76.17,1.15.26,1.51,2.81,4.09,2.27,6.56,2.09.41.13.81.26,1.22.4,2.05.33,4.09,1.56,6.18.11.52.12,1.04.24,1.55.36,2.26.38,4.79,1.4,6.35-1.15,5.18-8.46,10.2-17.01,15.33-25.5.8-1.32.89-2.54.22-3.87Z"/>
        <path class="cls-14" d="M43.5,12.71c.4.02.8.05,1.21.07.3.27.59.76.89.76,2.84.04,4.9-2.18,7.59-2.69.78-.15.81-1.23.25-1.87-.75-.86-1.06-2.1-2.22-2.61.27-1.27-1.05-1.55-1.49-2.39,0-2.35,1.62-1.02,2.37-.88,3.31.6,6.56,1.46,9.42,3.35-.05.6-.16,1.15-.91,1.25-2.23-1.02-4.32-2.53-7.14-2.34.12.77.04,1.39.31,1.78,2.04,2.97.56,4.36-2.06,5.94-3.79,2.27-8,1.87-12.02,2.66-1-.19-1.86.27-2.74.6-3.16,1.2-3.43,2.27-1.21,4.63.82.87,1.84,1.04,2.87.52,1.08-.54,1.42-1.44,1.05-2.65-.2-.65-1.53-1.23-.23-2.06,1.88,1.14,2.36,2.85,1.29,4.63-.96,1.59-.12,2.07,1.01,2.61.58.27,1.23.4,1.79.69.61.31,1.78.42,1.46,1.34-.42,1.2-1.52.47-2.17.15-2.58-1.28-5.26-2.45-7.59-4.11-3.1-2.21-5.7-1.6-8.33.58-.72.43-1.44.85-2.16,1.28.11-.79.22-1.57.33-2.36.72-1.18,2.49-.72,3.13-2.01.29-.17.57-.33.86-.5,2.02.23,3.64-.16,3.95-2.56,2.54-1.31,5.04-2.7,7.98-2.9.94-.02,2.09.58,2.51-.9Z"/>
        <path class="cls-8" d="M51.22,6.37c1.16.51,1.47,1.75,2.22,2.61.56.64.53,1.73-.25,1.87-2.7.5-4.76,2.73-7.59,2.69-.3,0-.6-.5-.89-.76-.55-1.37-1.1-2.73-1.65-4.1,1.24.04,2.2.76,3.14,1.41,2.98,2.06,4.27,1.47,4.67-2.19.06-.52.24-1.02.36-1.53Z"/>
        <path class="cls-6" d="M60.62,7.7c.74-.09.86-.65.91-1.25,1.13.02,2.27.04,3.4.07.85,1.87,1.57,3.72-.72,5.14-.22.16-.45.32-.67.47-2.2-.67-4.02-1.6-2.92-4.44Z"/>
        <path class="cls-2" d="M8.61,38.13c1.75-.19,2.29.84,2.22,2.32-.05.98-.71,1.5-1.69,1.6-1.98.19-1.52-1.68-2.19-2.6.28-.78.64-1.47,1.66-1.33Z"/>
        <path class="cls-3" d="M64.21,11.66c2.29-1.43,1.57-3.28.72-5.14,3.15.64,1.9,2.82,1.63,4.65-.17.5-.33,1.01-.5,1.51-.62-.34-1.23-.68-1.85-1.03Z"/>
        <path class="cls-8" d="M49.73,3.98c.43.84,1.76,1.11,1.49,2.39-1.69-.05-2.04-.93-1.49-2.39Z"/>
        <path class="cls-3" d="M4.53,46.33c.25.31.5.63.74.94-.17.02-.33.04-.5.07-.11-.3-.23-.6-.34-.91,0,0,.1-.1.1-.1Z"/>
        <path class="cls-12" d="M70.86,45.57c-1.17.68-2.34,1.36-3.89,2.26,1.79.83,3.32.97,4.63.57,2.37-.72,3.38.67,4.28,2.28,1.7,3.05,1.37,7.32-.64,9.68-1.6,1.89-2.54,1.63-3.6-.99,0,0-.04.05-.04.05,1.25-.48,1.21-1.26.51-2.2v.05c.17-.97.22-1.84-1.2-1.15-2.65.22-3.06.85-2.08,3.22.85,1.33.07,1.9-1.08,2.27-.89.29-1.59,1.68-2.75.4-2.25-2.48-4.91-3.27-8.07-1.8-1.01.47-1.5-.23-2.1-.9-3.04-3.37-5.34-3.96-9.32-2.18-1.27.57-2.01.63-2.95-.51-1.1-1.35-2.75-2.72-4.38-2.21-3.54,1.1-5.78-.32-8.35-2.51-1.9-1.62-4.67-1.36-6.98-.04-1.1.63-1.68.6-2.58-.46-1.81-2.16-4.3-2.87-6.93-1.76-1.53.64-2.15.05-2.77-1.08-.53-.94-1.16-1.8-2.09-2.38-.79-.49-1.43-1.18-1.1-2.09.49-1.35,1.58-.56,2.46-.44,2.88.29,5.53,1.28,8.17,2.44,2.5,1.1,5.17,1.45,7.87.54,1.93,2.6,2.68-.41,3.98-.83-.9,3.9,2.16,3.71,4.45,4.26,6.64,1.59,13.34,2.95,19.79,5.26.29.29.59.58.88.87,1.53,1.23,3.05,2.24,4.3-.32h-.02c1.91.39,1.44-1.3,1.91-2.18.18.68.35,1.35.53,2.05,1.84-4.14,1.43-6.52-1.47-7.47-1.54-.5-2.91-1.24-4.35-1.9-1.25-.57-2.61-.86-3.29-2.23-1.71,2.92-3.76.43-5.66.37-.08-.19-.09-.39-.05-.59.12-.46.24-.93.36-1.39h0c2.38.66,4.79.15,7.19.21,2.36.06,4.6-.49,6.07-2.64,1.62.59,3.11.33,4.39-.81,1.05-.93,1.32-2.13.81-3.43-.38-.97-.75-2.1-2.22-1.36-1.8-.56-3.31-.35-4.17,1.58-1.4-1.35-1.5-3.1-1.52-4.88.49-.09,1.17.03,1.31-.61.23-1.09-.75-1.11-1.4-1.27-2.72-.69-5.52-1.09-7.99-2.55l-.24-.04c1.75-1,3.72-.57,5.58-.85,2.41-.36,4.9-.65,6-3.37l.03.14c.62.15,1.15.04,1.47-.58.41-.69.82-1.38,1.24-2.06,2.04-1.81,1.79-4.35,2.1-6.7l.25-.14c3.46,4.25,4.84,11.4,2.84,14.73-.93-.29-1.85-.4-2.45.58-.54.89-.01,1.54.62,2.13.08.39.06,1.04.26,1.12,4.85,1.98,7.28,7,5.86,12.25-1.44-.43-2.19.19-2.4,1.6Z"/>
        <path class="cls-12" d="M46.92,44.52c1.9.06,3.96,2.56,5.66-.37.68,1.37,2.04,1.66,3.29,2.23,1.44.66,2.82,1.4,4.35,1.9,2.91.95,3.31,3.32,1.47,7.47-.18-.7-.36-1.38-.53-2.05-.45-1.3-.15-3.36-2.64-2.58-3.62-.11-5.01,1.21-4.43,4.21-6.45-2.3-13.15-3.66-19.79-5.26-2.29-.55-5.34-.37-4.45-4.26,0,0,.09-.01.09-.01.01-1.14.31-2.56-1.68-1.63-2.36-.69-1.94,1.32-2.39,2.47-2.7.91-5.37.56-7.87-.54-2.64-1.16-5.29-2.16-8.17-2.44,2.15-1.29,2.92-3.04,1.65-5.36-.26-.47-.62-.76-.28-1.38,1.29-2.35,6.85-3.83,9.33-2.58,1.58.8,2.85,2.33,4.86,2.19.87,1.5,2.59.17,3.63,1.1-.04,1.95,1.71,1.93,2.84,2.4,3.67,1.54,7.41,2.91,11.13,4.35-.15.56-.31,1.12-.46,1.68-1.25.75-.62,1.1.29,1.39l-.03-.04c.08,1.19.78,1.69,1.89,1.62.9-.05,1.74-.41,1.94-1.36.21-1.02.2-2.09.28-3.14Z"/>
        <path class="cls-13" d="M41.96,92.65c-2.47.18-5.04.72-6.56-2.09.97-3.27,1.87-6.56,2.91-9.8,2.24-6.98,3.56-14.22,6.18-21.08,4.55-3.18,7.69-2.44,10.03,2.37-4.19,10.2-8.38,20.41-12.57,30.61Z"/>
        <path class="cls-13" d="M26.1,89.05c-2.47.32-4.86.39-6.37-2.14.13-1.05.32-2.11.39-3.16.64-9.77,1.26-19.54,1.88-29.31,5.22-2.7,6.56-2.38,10.11,2.36-2,10.75-4,21.51-6,32.26Z"/>
        <path class="cls-13" d="M72.81,63.01c.67,1.33.58,2.55-.22,3.87-5.13,8.49-10.15,17.04-15.33,25.5-1.56,2.54-4.09,1.53-6.35,1.15,5.17-9.58,10.34-19.16,15.51-28.73,1.78-1.83,3.77-2.93,6.39-1.78Z"/>
        <path class="cls-13" d="M4.77,47.34c.17-.02.33-.05.5-.07,2.89.07,4.26,1.84,4.94,4.39.39,10.66.78,21.32,1.16,31.97-2.25.78-4.97-.66-5.18-3.01-.86-9.97-1.61-19.95-2.36-29.93-.09-1.17.31-2.32.93-3.35Z"/>
        <path class="cls-6" d="M34.26,90.3c-2.52,1.72-4.63.48-6.72-.92.42-1.65.93-3.28,1.25-4.94,1.72-9.07,3.4-18.16,5.09-27.24,4.8-2.08,5.83-1.83,8.82,2.07-1.59,5.72-3.11,11.47-4.8,17.16-.75,2.52-.69,5.31-2.34,7.55-.1-.4-.36-.84-.28-1.21,1.45-6.86,1.88-13.96,4.91-20.44.82-1.75.56-3.13-1.33-3.9-2.27-.93-4.65.74-4.65,3.67,0,3.07-.73,5.96-1.57,8.8-1.49,5.05-1.67,10.27-2.47,15.4-.16,1.01-.71,1.88.54,2.34,1.16.43,1.81-.34,2.1-1.38.34-1.24.85-2.22,2.39-2.02-.32,1.69-.63,3.37-.95,5.06Z"/>
        <path class="cls-6" d="M18.56,86.62c-2.08.99-4.56-.15-5.93-2.72-.06-3.7-.16-7.41-.18-11.11-.04-6.9-1-13.77-.43-20.68,3.96-2.26,5.65-1.87,8.22,1.9-.6,9.11-1.21,18.22-1.81,27.33-.51-.21-.85-.5-1.02-1.1-.87-2.91.44-5.68.48-8.53.07-4.65.3-9.31.79-13.94.26-2.38-.6-4.13-2.59-4.45-2.56-.41-2.12,2.05-2.29,3.64-.82,7.81.3,15.61.13,23.42-.09,4.04.33,4.32,4.41,4.18.07.68.14,1.37.21,2.05Z"/>
        <path class="cls-9" d="M18.69,19.99c1.58,1.47,3.76,2.62,2.84,5.41-.49.35-.99.7-1.48,1.05-1.67-.91-3.4-1.73-5-2.75-5.22-3.33-6.74-8.45-6.68-14.27.01-1.34.4-2.18,2.07-2.04,3.38.27,6.63.69,8.43,4.12-2.07.68-4.13,1.09-6.19-.85-.13,1.82,1.62,2.02,1.4,3.19-.68.73-2.3-.19-2.41,1.46.73.71,1.68.08,2.43.46.28,1,1.98.69,1.89,1.91-.16,2.11,1.43,1.99,2.71,2.31Z"/>
        <path class="cls-9" d="M7.79,25.62c-.81,1.43.09,1.74,1.24,1.88.09.15.19.31.28.46-.14.69-.99,1.5-.33,2.03.92.74,1.4-.41,1.99-.92.24-.21.43-.47.62-.72.96-1.29,2.24-1.03,3.44-.59,1.96.72-.58,1.99.46,3.04,1.12,0,1.75-1.04,2.59-1.71.73,1.26.45,2.34-.87,2.81-2.07.74-3.89,2.19-6.2,2.26-2.09-1.26-4.53-1.84-6.36-3.64-3.85-3.78-3.51-5.21,1.8-6.81.97.27,1.41.92,1.35,1.91Z"/>
        <path class="cls-6" d="M56.09,62.49c4.39-2.3,5.99-1.95,8.48,1.83-3.38,6.38-6.69,12.79-10.18,19.11-1.06,1.92-1.58,4.21-3.41,5.68,1.02-5.37,3.66-10.02,6.63-14.46,1.79-2.67,3.13-5.52,4.43-8.41.58-1.3.1-2.24-1.29-2.73-2.58-.91-4.11.37-5.07,2.53-.52,1.18-.84,2.41-2.11,3.03.84-2.2,1.69-4.39,2.53-6.59Z"/>
        <path class="cls-4" d="M33.87,57.2c-1.69,9.08-3.37,18.16-5.09,27.24-.32,1.67-.83,3.3-1.25,4.94-.48-.11-.96-.23-1.44-.34,2-10.75,4.01-21.51,6.01-32.26.59.14,1.18.28,1.77.41Z"/>
        <path class="cls-4" d="M50.98,89.11c1.83-1.47,2.34-3.76,3.41-5.68,3.49-6.32,6.8-12.73,10.18-19.11.62.16,1.24.31,1.86.47-5.17,9.58-10.34,19.16-15.51,28.73-.52-.12-1.04-.24-1.56-.36.49-1.21.99-2.41,1.48-3.62.07-.14.12-.28.14-.43Z"/>
        <path class="cls-4" d="M56.09,62.49c-.84,2.2-1.69,4.39-2.53,6.59-1.05,1.19-1.28,2.73-1.74,4.17-.13.17-.23.35-.33.55-.18.42-.35.84-.53,1.26-2.6,6-5.19,11.99-7.79,17.99-.41-.13-.81-.26-1.22-.4,4.19-10.2,8.38-20.41,12.57-30.61.52.15,1.04.3,1.57.45Z"/>
        <path class="cls-4" d="M18.44,81.34c.6-9.11,1.21-18.22,1.81-27.33.58.14,1.17.28,1.75.42-.62,9.77-1.24,19.54-1.88,29.31-.07,1.06-.26,2.11-.39,3.16-.39-.09-.78-.19-1.17-.28-.07-.68-.14-1.37-.21-2.05.04-.43.09-.85.13-1.28-.12-.25-.24-.49-.36-.74.11-.41.21-.81.32-1.22Z"/>
        <path class="cls-4" d="M12.02,52.11c-.57,6.91.39,13.78.43,20.68.02,3.7.12,7.41.18,11.11-.42-.09-.84-.17-1.26-.26-.39-10.66-.78-21.31-1.16-31.97.6.15,1.21.3,1.81.45Z"/>
        <path class="cls-4" d="M35.56,83.98c1.64-2.25,1.59-5.03,2.34-7.55,1.69-5.69,3.21-11.44,4.8-17.16.6.13,1.2.27,1.81.4-2.63,6.86-3.95,14.11-6.18,21.08-1.04,3.25-1.95,6.54-2.91,9.8-.38-.09-.76-.17-1.15-.26.32-1.69.63-3.37.95-5.06.12-.42.24-.84.36-1.26Z"/>
        <path class="cls-10" d="M29.04,37.63c-1.04-.93-2.76.41-3.63-1.1-.19-2-2.03-2.35-3.33-2.94-2.57-1.17-2.68-2.51-.89-4.4.26.02.52.05.78.07,1.96,2.21,3.87,4.48,6.51,5.95,1,.56,2.22,1,2.1,2.52-.51-.03-1.03-.07-1.54-.1Z"/>
        <path class="cls-8" d="M21.97,29.26c-.26-.02-.52-.04-.78-.07.24-1.28,1.76-2.11,1.3-3.64.29-1.18,1.33-1.31,2.25-1.61.72-.43,1.44-.85,2.16-1.28.07,3.48-2.28,5.15-4.93,6.59Z"/>
        <path class="cls-8" d="M72.13,57.29s-.01-.05-.01-.05c-.29.7-.73,1.37-.51,2.2,0,0,.04-.05.04-.05-.93-.29-1.86-.35-2.8-.03-.98-2.37-.57-3,2.08-3.22.4.38.81.77,1.21,1.15Z"/>
        <path class="cls-8" d="M70.86,45.57c.22-1.41.96-2.03,2.4-1.6.83,1.01,1.15,2.14-.25,2.77-.83.37-2.13.5-2.15-1.17Z"/>
        <path class="cls-8" d="M67.14,30.59c-.64-.59-1.17-1.24-.62-2.13.6-.98,1.52-.87,2.45-.58,1.05,2.02.67,3.07-1.82,2.71Z"/>
        <path class="cls-10" d="M64.21,11.66c.62.34,1.23.68,1.85,1.03.03.16.05.31.06.47,0,0-.25.14-.25.14-.8-.35-1.83-.23-2.34-1.16.22-.16.45-.32.67-.47Z"/>
        <path class="cls-2" d="M33.01,16.51c-.31,2.41-1.93,2.79-3.95,2.56-.7-2.42-.34-5.07-1.6-7.38-.32-2.86,2.63-4.72,2.31-7.57.47-.34.93-.68,1.4-1.03,2.16.64,1.14,2.37,1.27,3.7-.4,1.81.64,3.51.12,5.5-.24.92-1.17,3.01.45,4.21Z"/>
        <path class="cls-2" d="M32.44,6.79c-.13-1.33.89-3.06-1.27-3.7.8-2.14,2.16-1.52,3.58-.73,4.22,2.35,6.35,6.46,8.75,10.35-.42,1.47-1.57.88-2.51.89.49-2.04-2.08-2.1-2.46-4.15-.5-2.66-4.12-3.63-6.08-2.66Z"/>
        <path class="cls-2" d="M29.77,4.12c.33,2.86-2.63,4.72-2.31,7.57-1.11,2.4.09,4.75.18,7.12-1.3.22-1.65-.45-1.97-1.63-.39-1.42-.66-3.18-2.68-3.42.21-.79.41-1.59.62-2.38.16-.2.33-.4.5-.61.55-2.52,1.9-4.57,3.61-6.45.68-.75,1.28-1.03,2.05-.2Z"/>
        <path class="cls-14" d="M14.08,15.77c-.75-.38-1.7.25-2.43-.46.11-1.65,1.73-.74,2.41-1.46.22-1.17-1.53-1.37-1.4-3.19,2.06,1.94,4.12,1.53,6.19.85,0,0,0,.01,0,.01-1.64,2.38-.95,4.23,1.31,5.72-.2.74-.43,1.45-1.33,1.61-1.09-1.8-1.97-3.92-4.77-3.08Z"/>
        <path class="cls-11" d="M22.99,13.76c2.03.24,2.3,2,2.68,3.42.32,1.18.67,1.85,1.97,1.63.19.25.38.51.56.76-.64,1.3-2.42.83-3.13,2.01-2.98-1.52-3.32-2.81-2.08-7.83Z"/>
        <path class="cls-9" d="M20.18,17.24c-2.26-1.49-2.94-3.34-1.31-5.72,4.02,1.09,1.24,3.73,1.31,5.72Z"/>
        <path class="cls-6" d="M14.08,15.77c2.8-.85,3.68,1.28,4.77,3.08-.05.38-.11.76-.16,1.14-1.29-.32-2.88-.2-2.72-2.31.09-1.22-1.61-.91-1.89-1.91Z"/>
        <path class="cls-6" d="M7.79,25.62c.05-.99-.38-1.64-1.35-1.91,1.06-1.27,2.39-1.44,3.89-.99v-.02c.14,1.83.27,3.64-2.53,2.92Z"/>
        <path class="cls-11" d="M12.5,24.2c1.62.29,2.33,1.05,3.2,2.17-1.51-.12-2.7-.14-3.2-2.17Z"/>
        <path class="cls-11" d="M24.11,10.77c-.17.2-.33.4-.5.61.17-.2.33-.4.5-.61Z"/>
        <path class="cls-9" d="M9.02,27.5c.24-.14.51-.32.63.09.02.08-.22.24-.35.37-.1-.15-.19-.3-.28-.46Z"/>
        <path class="cls-6" d="M10.32,22.73c.1-.07.19-.15.29-.22-.02.05-.03.13-.07.15-.07.03-.15.03-.23.05,0,0,.01.02.01.02Z"/>
        <path class="cls-6" d="M43.18,93.05c2.6-6,5.19-11.99,7.79-17.99,1.71,1.15.64,2.49.12,3.64-1.58,3.46-3.11,6.93-4.37,10.53-.35,1.01-.76,1.83.39,2.39,1.44.71,1.91-.21,2.05-1.44.15-1.33,1.04-.65,1.68-.63-.49,1.21-.99,2.41-1.48,3.62-2.09,1.45-4.12.21-6.18-.11Z"/>
        <path class="cls-12" d="M63.54,12.14c.51.93,1.54.81,2.34,1.16-.31,2.36-.06,4.89-2.1,6.7-.18-1.19-.02-2.67-1.98-2.37-1.95.07-3.79.23-2.52,3.01-.13,1.3.72,1.68,1.77,1.87-1.1,2.72-3.59,3.01-6,3.37-1.86.28-3.83-.15-5.58.85-.32-.09-.64-.17-.96-.26-.36-.66-.87-1.37-1.57-.65-.47.49.32.77.73,1,.69.96-1.48,3.83,1.97,2.94,2.83-.18,5.49.65,8.15,1.43.02,1.78.12,3.53,1.52,4.88-.82,1.23,0,2.01.76,2.8.14.41.28.81.43,1.22-1.47,2.15-3.71,2.7-6.07,2.64-2.4-.06-4.81.44-7.19-.21-.06-.06-.13-.12-.19-.18.07.06.13.12.2.18-.12.46-.24.93-.36,1.39-5.43-2.07-10.86-4.13-16.29-6.2.12-1.52-1.11-1.96-2.1-2.52-2.64-1.48-4.55-3.74-6.51-5.95,2.65-1.44,5-3.11,4.93-6.59,2.64-2.19,5.23-2.8,8.33-.58,2.33,1.66,5.01,2.83,7.59,4.11.65.32,1.75,1.05,2.17-.15.33-.92-.84-1.03-1.46-1.34-.57-.29-1.22-.42-1.79-.69-1.13-.54-1.98-1.02-1.01-2.61,1.07-1.77.59-3.49-1.29-4.63.09-.35.17-.69.26-1.04,4.02-.78,8.23-.39,12.02-2.66,2.63-1.57,4.1-2.97,2.06-5.94-.27-.39-.19-1.01-.31-1.78,2.82-.19,4.91,1.32,7.14,2.34-1.1,2.84.72,3.77,2.92,4.44ZM41.84,34.68c.31-.36.36-.76.01-1.1-.49-.49-.92-.26-1.32.16-3.63.13-4.25.92-3.05,3.87.86,2.35,2.46,1.91,4,.92,1.55-1,1.59-2.42.34-3.87v.02ZM44.75,18.7c1.2-.38,3.07.06,4.23-1.55.39-.55,0-1.09-.65-1.05-1.76.11-3.7-.09-4.93,1.52-.3.39.39.87,1.36,1.08Z"/>
        <path class="cls-5" d="M32.44,6.79c1.96-.97,5.58,0,6.08,2.66.38,2.04,2.96,2.11,2.46,4.15-2.93.21-5.44,1.6-7.98,2.9-1.62-1.2-.69-3.3-.45-4.21.52-1.99-.52-3.7-.12-5.5Z"/>
        <path class="cls-2" d="M39.7,15.73c-.09.35-.17.69-.26,1.04-1.29.83.03,1.41.23,2.06.37,1.21.03,2.11-1.05,2.65-1.04.52-2.06.35-2.87-.52-2.23-2.36-1.96-3.43,1.21-4.63.88-.33,1.74-.8,2.74-.6Z"/>
        <path class="cls-4" d="M28.21,19.57c-.19-.25-.38-.51-.56-.76-.09-2.37-1.29-4.72-.18-7.12,1.25,2.3.9,4.95,1.6,7.38-.29.17-.57.33-.86.5Z"/>
        <path class="cls-1" d="M30.58,37.73c5.43,2.07,10.86,4.13,16.29,6.2-.04.2-.02.4.05.59-.09,1.05-.07,2.12-.29,3.14-.2.95-1.03,1.31-1.94,1.36-1.12.06-1.82-.44-1.89-1.62,1.07.49,2.5.99,2.85-.45.45-1.82-1.14-2.34-2.65-2.57-3.71-1.44-7.46-2.81-11.13-4.35-1.13-.47-2.88-.45-2.84-2.4.51.03,1.03.07,1.54.1Z"/>
        <path class="cls-2" d="M54.1,55.33c-.58-3,.81-4.33,4.43-4.22,1.46,1.41,1.24,3.07.73,4.78,0,0,.02-.01.02-.01-1.41.51-2.92-.41-4.3.32-.29-.29-.59-.58-.88-.87Z"/>
        <path class="cls-2" d="M60.06,38.89c-.77-.79-1.59-1.58-.76-2.8.85-1.94,2.37-2.14,4.17-1.58,1.76,3.89,1.2,4.6-3.4,4.39Z"/>
        <path class="cls-1" d="M57.78,31.2c-2.67-.77-5.32-1.6-8.15-1.43,1.17-.98.75-1.99.07-3.01,2.47,1.46,5.28,1.86,7.99,2.55.65.17,1.63.18,1.4,1.27-.13.64-.82.51-1.31.61Z"/>
        <path class="cls-1" d="M60.06,38.89c4.6.21,5.16-.5,3.4-4.39,1.47-.74,1.84.39,2.22,1.36.51,1.3.24,2.5-.81,3.43-1.28,1.14-2.77,1.4-4.39.81-.14-.41-.28-.81-.43-1.22Z"/>
        <path class="cls-1" d="M61.04,22.51c-1.05-.19-1.9-.57-1.77-1.87.91.78,1.94.97,2.84.14,1.18-1.1.14-2.12-.31-3.14,1.96-.29,1.8,1.18,1.98,2.37-.41.69-.82,1.38-1.24,2.07-.51.13-1.13,0-1.47.57l-.03-.14Z"/>
        <path class="cls-8" d="M25.88,46.64c.46-1.15.03-3.16,2.4-2.47.56.54,1.12,1.09,1.68,1.63,0,0-.09.01-.09.01-1.3.42-2.06,3.43-3.98.83Z"/>
        <path class="cls-7" d="M49.69,26.77c.68,1.02,1.1,2.03-.07,3.01-3.45.89-1.28-1.99-1.97-2.95.28-.12.56-.24.84-.36.32.09.64.17.96.26,0,0,.24.04.24.04Z"/>
        <path class="cls-1" d="M59.26,55.89c.51-1.71.73-3.37-.73-4.78,2.49-.78,2.19,1.29,2.64,2.58-.47.88,0,2.57-1.91,2.19Z"/>
        <path class="cls-1" d="M54.98,56.19c1.39-.73,2.9.19,4.3-.32-1.25,2.55-2.77,1.54-4.3.32Z"/>
        <path class="cls-1" d="M72.13,57.29c-.4-.38-.81-.77-1.21-1.15,1.42-.69,1.37.18,1.21,1.15Z"/>
        <path class="cls-1" d="M71.61,59.44c-.22-.82.22-1.49.51-2.2.7.94.74,1.72-.51,2.2Z"/>
        <path class="cls-12" d="M61.07,22.65c.34-.57.95-.44,1.47-.57-.32.62-.85.72-1.47.57Z"/>
        <path class="cls-8" d="M43.01,44.38c1.51.23,3.11.75,2.65,2.57-.36,1.44-1.78.94-2.85.45,0,0,.03.04.03.04-.1-.46-.19-.93-.29-1.39.15-.56.31-1.12.46-1.68Z"/>
        <path class="cls-10" d="M29.95,45.79c-.56-.54-1.12-1.09-1.68-1.63,1.99-.93,1.69.49,1.68,1.63Z"/>
        <path class="cls-1" d="M42.55,46.05c.1.46.19.93.29,1.39-.91-.29-1.54-.65-.29-1.39Z"/>
        <path class="cls-6" d="M35.56,83.98c-.12.42-.24.84-.36,1.26-1.54-.2-2.05.78-2.39,2.02-.29,1.04-.94,1.8-2.1,1.38-1.25-.46-.7-1.33-.54-2.34.8-5.14.98-10.35,2.47-15.4.84-2.84,1.56-5.73,1.57-8.8,0-2.93,2.38-4.6,4.65-3.67,1.89.77,2.15,2.16,1.33,3.9-3.04,6.47-3.46,13.58-4.91,20.44-.08.37.18.8.28,1.21Z"/>
        <path class="cls-6" d="M18.44,81.34c-.11.41-.21.81-.32,1.22.12.25.24.49.36.74-.04.43-.09.85-.13,1.28-4.08.14-4.5-.15-4.41-4.18.17-7.81-.95-15.61-.13-23.42.17-1.59-.26-4.05,2.29-3.64,1.98.32,2.84,2.07,2.59,4.45-.5,4.62-.72,9.29-.79,13.94-.04,2.86-1.35,5.62-.48,8.53.18.6.52.89,1.02,1.1Z"/>
        <path class="cls-6" d="M50.84,89.54c-.64-.02-1.53-.7-1.68.63-.14,1.24-.61,2.15-2.05,1.44-1.15-.57-.74-1.38-.39-2.39,1.25-3.6,2.79-7.07,4.37-10.53.52-1.15,1.59-2.49-.12-3.64.18-.42.36-.84.53-1.26.5.05.78-.03.32-.55.45-1.44.69-2.98,1.74-4.17,1.27-.62,1.59-1.85,2.11-3.03.95-2.15,2.49-3.44,5.07-2.53,1.39.49,1.87,1.43,1.29,2.73-1.3,2.89-2.64,5.74-4.43,8.41-2.97,4.44-5.61,9.09-6.63,14.46-.02.15-.07.3-.14.43Z"/>
        <path class="cls-6" d="M51.83,73.25c.46.52.18.6-.32.55.09-.19.2-.38.32-.55Z"/>
        <path class="cls-2" d="M37.48,37.61c-1.2-2.95-.58-3.74,3.05-3.87.44.31.87.63,1.31.94,0,0-.01-.02-.01-.02-.11,2.95-1.77,3.63-4.34,2.95Z"/>
        <path class="cls-7" d="M44.75,18.7c-.97-.21-1.66-.69-1.36-1.08,1.24-1.61,3.17-1.41,4.93-1.52.66-.04,1.04.5.65,1.05-1.15,1.61-3.02,1.18-4.23,1.55Z"/>
        <path class="cls-8" d="M61.79,17.63c.45,1.02,1.5,2.04.31,3.14-.9.83-1.93.64-2.84-.14-1.27-2.77.58-2.93,2.53-3Z"/>
        <path class="cls-1" d="M37.48,37.61c2.57.67,4.23,0,4.34-2.95,1.25,1.45,1.21,2.87-.34,3.87-1.53.99-3.14,1.43-4-.92Z"/>
        <path class="cls-10" d="M48.49,26.48c-.28.12-.56.24-.84.36-.41-.24-1.2-.51-.73-1,.7-.73,1.21-.01,1.57.65Z"/>
        <path class="cls-1" d="M41.84,34.68c-.44-.31-.87-.63-1.31-.94.4-.42.83-.65,1.32-.16.35.35.29.74-.01,1.1Z"/>
        <path class="cls-10" d="M47.24,42.54c-.07-.06-.13-.12-.2-.18.06.06.13.12.19.18,0,0,0,0,0,0Z"/>
      </g>
    </g>
  </g>
</svg>