<?xml version="1.0" encoding="UTF-8"?>
<svg id="Layer_2" data-name="Layer 2" xmlns="http://www.w3.org/2000/svg" viewBox="0 0 121.11 115.74">
  <defs>
    <style>
      .cls-1 {
        fill: #ffe2c3;
      }

      .cls-1, .cls-2, .cls-3, .cls-4, .cls-5, .cls-6 {
        stroke-width: 0px;
      }

      .cls-2 {
        fill: #85b76a;
      }

      .cls-3 {
        fill: #fbfbfb;
      }

      .cls-4 {
        fill: #e24d46;
      }

      .cls-5 {
        fill: #f7de85;
      }

      .cls-6 {
        fill: #271c15;
      }

      .cls-7 {
        fill: none;
        stroke: #271c15;
        stroke-miterlimit: 10;
        stroke-width: .5px;
      }
    </style>
  </defs>
  <g id="Layer_1-2" data-name="Layer 1">
    <g>
      <path class="cls-2" d="M72.62,55.85c-.55,4.08-.27,8.06.48,12.1,1.05,5.62,10.19,5.55,11.29,0,.5-2.53,1.01-5.05,1.51-7.58h-11.29c.78,3.12,1.56,6.23,2.34,9.35.7,2.8,3.64,4.61,6.43,4.19,2.98-.45,4.89-2.77,5.08-5.75s.38-6.13.57-9.2l-11.5,1.56c.65,1.73,1.3,3.47,1.95,5.2,2.27,6.04,11.25,5.33,11.5-1.56.1-2.76.21-5.53.31-8.29.12-3.16-2.78-5.86-5.86-5.86-3.48,0-5.48,2.7-5.86,5.86l-.08.65c-.38,3.15,2.96,5.86,5.86,5.86,3.48,0,5.48-2.7,5.86-5.86l.08-.65h-11.71c-.1,2.76-.21,5.53-.31,8.29l11.5-1.56c-.65-1.73-1.3-3.47-1.95-5.2-2.3-6.14-11.08-5.25-11.5,1.56-.19,3.07-.38,6.13-.57,9.2l11.5-1.56c-.78-3.12-1.56-6.23-2.34-9.35-1.36-5.41-10.15-5.75-11.29,0-.5,2.53-1.01,5.05-1.51,7.58h11.29c-.56-2.97-.46-6-.06-8.98.42-3.14-2.99-5.86-5.86-5.86-3.51,0-5.43,2.71-5.86,5.86h0Z"/>
      <g>
        <path class="cls-6" d="M22.27,57.63c.56,1.25,1.14,2.53,2.1,3.51,1.95,1.97,5.18,2.24,7.74,1.2s4.55-3.16,6.09-5.47c5.05-7.6,5.75-17.88,1.79-26.1-1.64-3.39-4.15-6.53-7.62-7.99-2.52-1.06-5.34-1.15-8.07-.96-2.59.19-5.25.65-7.43,2.06-4.98,3.23-4.39,9-3.15,13.98,1.67,6.74,5.72,13.43,8.55,19.76Z"/>
        <path class="cls-4" d="M32.95,55.52c-1.86-.13-3.6,1.21-4.08,2.98-.53,1.98.74,4.09,2.64,4.72,1.8.6,3.83-.28,4.69-1.95.99-1.91.21-4.16-1.58-5.26-1.23-.75-2.84-.03-3.23,1.31-.41,1.42-.82,2.83-1.23,4.25-.33,1.14.4,2.39,1.53,2.7s2.35-.4,2.7-1.53c.24-.77.47-1.53.71-2.3l-4.31-.58c.03,1.24.06,2.49.09,3.73s.99,2.2,2.2,2.2,2.12-1.01,2.2-2.2c.11-1.75.22-3.49.33-5.24h-4.39c.17,3.53.34,7.07.51,10.6.06,1.18.97,2.2,2.2,2.2s2.09-1.01,2.2-2.2c.41-4.53.82-9.05,1.23-13.58h-4.39c.37,3.81.75,7.61,1.12,11.42.12,1.18.93,2.2,2.2,2.2s2.17-1.01,2.2-2.2c.08-3.11.15-6.23.23-9.34h-4.39c.24,2.5.48,4.99.71,7.49.11,1.18.93,2.2,2.2,2.2,1.14,0,2.26-1.01,2.2-2.2l-.44-8.06-4.31.58c.49,3.59.98,7.19,1.46,10.78.14,1.07,1.46,1.72,2.41,1.57,1.08-.16,1.88-1.04,1.9-2.16.05-2.59.1-5.18.15-7.76l-4.31.58c.44,1.89.87,3.78,1.31,5.67.24,1.05,1.38,1.73,2.41,1.57,1.11-.17,1.84-1.04,1.9-2.16.15-2.74.3-5.48.45-8.21l-4.31.58c.49,3.11.99,6.23,1.48,9.34l4.24-1.17c-.87-4.3-1.75-8.6-2.62-12.89-.49-2.43-4.41-1.88-4.31.58.1,2.73.21,5.46.31,8.18h4.39l-.67-7.11-4.31.58c1.08,3.32,2.17,6.63,3.25,9.95.34,1.03,1.31,1.74,2.41,1.57s1.91-1.04,1.9-2.16l-.03-6.96h-4.39c.19,1.68.37,3.35.56,5.03.13,1.18.92,2.2,2.2,2.2,1.17,0,2.22-1.01,2.2-2.2l-.07-4.01c-.02-1.19-.99-2.2-2.2-2.2s-2.22,1.01-2.2,2.2l.07,4.01h4.39c-.19-1.68-.37-3.35-.56-5.03-.13-1.18-.92-2.2-2.2-2.2-1.19,0-2.2,1.01-2.2,2.2l.03,6.96,4.31-.58c-1.08-3.32-2.17-6.63-3.25-9.95-.34-1.03-1.31-1.74-2.41-1.57-.99.15-2.01,1.05-1.9,2.16l.67,7.11c.11,1.18.93,2.2,2.2,2.2,1.15,0,2.24-1.01,2.2-2.2-.1-2.73-.21-5.46-.31-8.18l-4.31.58c.87,4.3,1.75,8.6,2.62,12.89.24,1.16,1.61,1.83,2.7,1.53,1.25-.34,1.72-1.53,1.53-2.7-.49-3.11-.99-6.23-1.48-9.34-.17-1.06-1.44-1.72-2.41-1.57-1.11.17-1.84,1.04-1.9,2.16-.15,2.74-.3,5.48-.45,8.21l4.31-.58c-.44-1.89-.87-3.78-1.31-5.67-.57-2.46-4.27-1.85-4.31.58-.05,2.59-.1,5.18-.15,7.76l4.31-.58c-.49-3.59-.98-7.19-1.46-10.78-.14-1.07-1.46-1.72-2.41-1.57-1.02.15-1.96,1.05-1.9,2.16l.44,8.06h4.39c-.24-2.5-.48-4.99-.71-7.49-.11-1.18-.93-2.2-2.2-2.2s-2.17,1.01-2.2,2.2c-.08,3.11-.15,6.23-.23,9.34h4.39c-.37-3.81-.75-7.61-1.12-11.42-.12-1.18-.93-2.2-2.2-2.2s-2.09,1.01-2.2,2.2c-.41,4.53-.82,9.05-1.23,13.58h4.39c-.17-3.53-.34-7.07-.51-10.6-.06-1.18-.97-2.2-2.2-2.2s-2.12,1.01-2.2,2.2c-.11,1.75-.22,3.49-.33,5.24h4.39c-.03-1.24-.06-2.49-.09-3.73-.06-2.49-3.58-2.96-4.31-.58-.24.77-.47,1.53-.71,2.3l4.24,1.17c.41-1.42.82-2.83,1.23-4.25l-3.23,1.31c-.2-.12-.12-.54-.1-.09,0-.17-.1-.3.01-.48.12-.2.4-.2.07-.1.18-.05.25-.16.47-.09s.32.41.18.04c.07.17.15.27.1.48s-.16.21-.26.34c.23-.13.24-.14.05-.03-.24.03-.23.04.04.04,1.18.08,2.2-1.07,2.2-2.2,0-1.26-1.01-2.11-2.2-2.2h0Z"/>
        <path class="cls-5" d="M77.04,78.85h0s.01.01.01.01c0-.01.01-.01.01-.02-.01,0-.01.01-.02.01ZM101.66,29.12c-.68-.71-1.56-1.24-2.35-1.85-2.01-1.55-4.41-2.12-6.57-.97-3.57,1.91-7.27,3.35-10.11,6.85-3.53,4.35-8.73,6.35-14.66,4.84-4.75-1.22-7.41-4.42-9.26-8.83-.81-1.91,1.13-5.16-1.59-5.51-1.93-.25-4.17,1.72-6.25,2.76-.89.45-1.72,1.01-2.54,1.58-6.25,4.35-12.59,4.82-19.07.52-4.25-2.81-8.57-3.17-13.19-.69-1.32.72-3.06.78-2.48,2.84.49,1.71.87,3.38,3.6,3.03,5.74-.73,9.02,2.83,10.94,7.61,1.98,4.95,2,10-2.52,13.68-2.16,1.77-1.68,3.13-.84,5.07,3.61,8.42,7.48,16.7,12,24.66,1.51,2.67,2.64,5.46,6.77,5.22,1.89-.11,3.85,1.69,4.66,3.9,2.54.62,3.23,3.08,2.51,4.59-2.94,6.24,1.96,8.93,5.09,12.44,2.89,3.24,6.05,3.01,9.13.29,3.99-3.55,6.97-7.94,10.02-12.28,1.78-2.53,2.31-4.29-.14-7.11-3.62-4.18-2.04-11.17,2.23-12.91.73-3.99,4.33-5.82,7.17-5.71,5.26.21,6.81-2.83,8.42-6.55,1.12-2.59,2.28-5.18,3.53-7.71,1.21-2.44,2.1-4.42-.48-6.94-2.34-2.28-1.71-5.52-.26-8.4,1.41-2.78,3.5-3.27,6.23-2.02,1.61.73,1.99-.57,2.43-1.65,1-2.46,2.75-4.94,2.7-7.39-.04-1.98-3.6-1.78-5.12-3.36ZM37.15,65.96c-2.84-.41-5.97-.64-5.99-4.47-.01-4.1,3.24-4.44,6.29-4.61,3.22-.19,5.65.9,5.63,4.59-.02,3.94-3.13,4.04-5.93,4.49ZM45.01,54.55c-3.87.04-7.74.02-12.65.02,2.25-2.28,4-2.06,5.58-2.27,1.58-.22,3.19-.24,5.14-.37-1.8-3.63-5.01-4.59-8.29-5.69,3.87-2.08,11.77,2.74,11.71,6.75-.02,1.09-.59,1.55-1.49,1.56ZM64.17,63.65c-2.55,1.6-5.1,1.23-7.4-.51-1.97-1.49-3.69-3.23-2.41-6.06,1.38,0,1.46.9,1.74,1.65.92,2.42,2.63,3.91,5.27,3.65,2.45-.24,3.68-1.97,4.09-4.32.12-.71-.35-1.86.92-1.83.9.02,1.41.8,1.34,1.75-.19,2.5-1.49,4.37-3.55,5.67ZM73.56,53.92c-.66-3.31-.03-5.09,2.53-6.85,2.22-1.53,4.68-1.93,7.05-.64,2.31,1.25,3.88,3.11,2.57,6.66-4.81-8.25-8.04-6.2-12.15.83ZM82.56,64.93c-3.73.1-6.08-1.78-6.31-5.42s2.29-4.76,5.71-4.63c3.56-.2,6.75,1.01,7.01,5.01.26,4.05-3.03,4.95-6.41,5.04Z"/>
        <path class="cls-1" d="M57.95,2.89c16.52-.23,31.35-.82,45.71,3.93,3.33,1.1,6.59,2.3,9.52,4.25,5,3.32,6.81,10.37,3.79,14.65-3.23,4.56-9.1,5.16-14.46.92-4.55-3.6-8.95-4.06-13.7-.88-4.41,2.95-8.82,2.81-13.04-.11-10.15-7.02-19.94-7-29.83.68-4.67,3.63-9.99,3.67-14.86.2-5-3.56-9.77-3.82-15.35-1.13-6.67,3.21-10.38,1.95-12.49-3.14-2.32-5.58.1-11.6,6.03-13.89,8.01-3.1,16.59-3.32,25.01-4.08,8.44-.76,16.93-1.01,23.68-1.39Z"/>
        <path class="cls-4" d="M72.37,36.82c-6.88.16-11.5-4.63-11.68-10.9-.07-2.45.9-3.08,2.84-2.77,6.05.95,10.68,5.28,16.41,7.07,1.45.45.49,1.64-.09,2.38-2.06,2.63-4.83,3.97-7.48,4.22Z"/>
        <path class="cls-4" d="M77.04,78.86c2.92-.46,4.42-3.37,7.18-4.13,1.1-.3,2.23-1.11,3.19-.03.79.88.08,1.96-.33,2.75-2.13,4.1-4.35,8.15-6.61,12.17-.61,1.09-1.2,2.7-2.86,2.15-1.26-.41-2.07-1.59-2.36-2.98-.74-3.56.12-6.83,1.81-9.95,0,0-.02.02-.02.02Z"/>
        <path class="cls-2" d="M98.5,51.93c-2.36-1.16-2.7-3.23-2.15-5.42.53-2.15,1.5-4.41,4.36-3.33,3,1.13.56,3.06.18,4.49-.41,1.52-.89,3.2-2.39,4.27Z"/>
        <path class="cls-2" d="M48.2,93.84c-.49,2.24,2.33,4.58-.45,6.96-2.69-2.35-4.27-5.51-6.2-8.45,2.92-1.98,4.15,2.36,6.64,1.48,0,0,0,0,0,0Z"/>
        <path class="cls-7" d="M81.95,54.89c3.56-.21,6.75,1,7.01,5.01.26,4.05-3.02,4.95-6.41,5.04-3.72.1-6.08-1.78-6.31-5.42-.23-3.64,2.29-4.76,5.71-4.63Z"/>
        <path class="cls-5" d="M32.36,54.57c2.24-2.28,3.99-2.05,5.58-2.27,1.58-.22,3.19-.24,5.14-.37-1.8-3.63-5.01-4.58-8.29-5.69,3.86-2.08,11.76,2.74,11.7,6.75-.02,1.08-.58,1.54-1.48,1.55-3.87.05-7.75.02-12.65.02Z"/>
        <path class="cls-5" d="M54.36,57.09c1.38,0,1.46.9,1.74,1.65.91,2.42,2.63,3.91,5.26,3.65,2.45-.24,3.68-1.98,4.09-4.33.12-.71-.35-1.86.92-1.83.91.02,1.41.8,1.34,1.75-.19,2.5-1.49,4.37-3.55,5.67-2.55,1.6-5.1,1.24-7.39-.5-1.97-1.5-3.7-3.24-2.41-6.06Z"/>
        <path class="cls-5" d="M85.71,53.1c-4.81-8.25-8.04-6.21-12.14.82-.67-3.31-.03-5.09,2.53-6.85,2.22-1.53,4.68-1.93,7.05-.65,2.31,1.25,3.88,3.12,2.57,6.67Z"/>
        <path class="cls-6" d="M88.4,1.13c-24.61-2.76-49.12.02-73.53,3.04C8.23,4.99,2.36,7.76.02,14.93c-.18,7.29.96,13.46,9.88,15.1,2.75.5,2.48,4.22,3.15,6.62.37,1.35-.24,3.1,1.95,3.32.4-.02.8-.04,1.2-.06-.46-4.25,1.67-4.79,5.03-3.48,5.02,1.97,7.84,10.31,4.99,14.84-1.11,1.77-2.51,3.15-4.9,2.35-.08.83-.16,1.66-.24,2.49-.04.3.03.58.21.82.16.18.35.35.47.55.04.06-.11.23-.17.35,1.67,3.97,3.34,7.94,5,11.92,3.52,6.71,7.03,13.43,10.55,20.15l.27.12-.03.3c3.59,5.19,7.18,10.38,10.78,15.56.51.61,1.03,1.21,1.54,1.81,2.27,2.21,4.17,4.81,7.43,6.96.03,0,.05.03.08.06.08.05.17.1.25.15.07.05.15.09.24.14,1.08.59,3.46,1.45,6.2-.31.42-.31.83-.63,1.23-.96h.01c4.33-3.49,7.43-7.26,10.06-11.38,13.36-20.94,24.56-42.96,32.92-66.39.52-1.48.31-3.77,2.32-4,4.83-.56,7.63-3.92,10.67-7.03v-9c-7.85-11.64-20.43-13.43-32.71-14.8ZM100.9,47.66c-.41,1.52-.89,3.2-2.39,4.27-2.36-1.17-2.7-3.23-2.15-5.43.53-2.14,1.5-4.41,4.36-3.33,3,1.13.56,3.06.18,4.49ZM104.08,39.87c-.44,1.08-.82,2.38-2.43,1.65-2.73-1.25-4.82-.76-6.23,2.02-1.45,2.88-2.08,6.12.26,8.4,2.58,2.52,1.69,4.5.48,6.94-1.25,2.53-2.41,5.12-3.53,7.71-1.61,3.72-3.16,6.76-8.42,6.55-2.84-.11-6.44,1.72-7.17,5.71.01,0,.01-.01.02-.01,0,.01-.01.01-.01.02,2.9-.47,4.41-3.37,7.17-4.13,1.1-.3,2.23-1.11,3.2-.03.79.88.08,1.96-.33,2.75-2.13,4.1-4.35,8.15-6.62,12.17-.61,1.09-1.2,2.7-2.86,2.16-1.26-.42-2.07-1.6-2.36-2.99-.74-3.55.12-6.82,1.8-9.93h-.01c-4.27,1.73-5.85,8.72-2.23,12.9,2.45,2.82,1.92,4.58.14,7.11-3.05,4.34-6.03,8.73-10.02,12.28-3.08,2.72-6.24,2.95-9.13-.29-3.13-3.51-8.03-6.2-5.09-12.44.72-1.51.03-3.97-2.51-4.59-.49,2.24,2.34,4.59-.45,6.97-2.69-2.35-4.26-5.51-6.19-8.45,2.92-1.99,4.15,2.36,6.64,1.48-.81-2.21-2.77-4.01-4.66-3.9-4.13.24-5.26-2.55-6.77-5.22-4.52-7.96-8.39-16.24-12-24.66-.84-1.94-1.32-3.3.84-5.07,4.52-3.68,4.5-8.73,2.52-13.68-1.92-4.78-5.2-8.34-10.94-7.61-2.73.35-3.11-1.32-3.6-3.03-.58-2.06,1.16-2.12,2.48-2.84,4.62-2.48,8.94-2.12,13.19.69,6.48,4.3,12.82,3.83,19.07-.52.82-.57,1.65-1.13,2.54-1.58,2.08-1.04,4.32-3.01,6.25-2.76,2.72.35.78,3.6,1.59,5.51,1.85,4.41,4.51,7.61,9.26,8.83,5.93,1.51,11.13-.49,14.66-4.84,2.84-3.5,6.54-4.94,10.11-6.85,2.16-1.15,4.56-.58,6.57.97.79.61,1.67,1.14,2.35,1.85,1.52,1.58,5.08,1.38,5.12,3.36.05,2.45-1.7,4.93-2.7,7.39ZM60.69,25.91c-.07-2.45.89-3.07,2.84-2.77,6.05.95,10.68,5.28,16.4,7.08,1.45.45.5,1.64-.08,2.38-2.07,2.63-4.83,3.96-7.48,4.22-6.88.16-11.5-4.64-11.68-10.91ZM116.97,25.72c-3.22,4.56-9.1,5.16-14.46.92-4.55-3.6-8.95-4.06-13.7-.88-4.41,2.95-8.82,2.81-13.04-.11-10.16-7.02-19.94-7-29.83.68-4.68,3.63-9.99,3.67-14.86.2-5-3.56-9.78-3.82-15.36-1.14-6.66,3.21-10.37,1.96-12.49-3.14-2.31-5.58.11-11.6,6.03-13.89,8.01-3.11,16.59-3.32,25.01-4.08,8.44-.76,16.93-1.01,23.68-1.39,16.52-.23,31.35-.82,45.71,3.93,3.33,1.1,6.59,2.3,9.52,4.25,5,3.32,6.82,10.37,3.79,14.65Z"/>
        <path class="cls-3" d="M65.13,113.73c-.42.39-.83.71-1.23.96.42-.31.83-.63,1.23-.96Z"/>
        <path class="cls-2" d="M21.02,36.15c1.62.79,2.86,2.2,3.83,3.72.9,1.42,1.61,2.98,1.9,4.64s.16,3.41-.55,4.94c-.46.99-1.3,1.95-2.39,2.02-.93.06-1.78-.53-2.48-1.15-2.09-1.85-3.69-4.24-4.66-6.85-.49-1.33-.83-2.71-.99-4.12-.12-1.05-.5-2.62.55-3.24,1.42-.84,3.36-.65,4.79.04Z"/>
      </g>
      <path class="cls-6" d="M29.79,58.41c-.48,2.41-.84,6.69,2.27,7.44,1.42.34,2.93.52,4.38.74s2.83.32,4.19-.12c1.21-.4,2.3-1.17,2.88-2.33s.77-2.6.64-3.87c-.16-1.46-.94-2.54-2.3-3.12-1.28-.54-2.7-.79-4.07-.98-1.5-.21-3.17-.43-4.63.1s-2.38,1.74-3.19,3.03c-.75,1.2,1.15,2.3,1.9,1.11.46-.74.95-1.58,1.77-1.97s1.83-.31,2.72-.24c1.08.09,2.16.28,3.21.54.72.17,1.89.34,2.26,1.09s.18,1.88-.01,2.62c-.22.84-.71,1.47-1.52,1.81-1.86.8-4.22.06-6.12-.25-.57-.09-1.3-.1-1.83-.35-.36-.17-.43-.55-.51-.91-.25-1.21-.17-2.54.07-3.75.28-1.38-1.84-1.97-2.12-.58h0Z"/>
      <path class="cls-6" d="M77.18,57.25c.94,0,.94-1.46,0-1.46s-.94,1.46,0,1.46h0Z"/>
      <path class="cls-6" d="M76.92,55.04c-2.46,1.74-3.07,5.16-1.5,7.73,1.7,2.77,5.08,3.9,8.19,3.59,2.9-.29,6.8-1.31,7.34-4.69.52-3.19-1.96-5.99-4.7-7.23-2.98-1.34-6.42-1.31-9.31.25-1.66.9-.18,3.43,1.48,2.53s3.58-1.06,5.37-.58c1.69.45,3.65,1.62,4.2,3.4.69,2.21-1.71,2.86-3.37,3.21-2.02.43-4.4.33-5.99-1.15-.72-.68-1.15-1.52-1.16-2.4,0-.79.3-1.69.93-2.13s.95-1.28.53-2c-.37-.64-1.35-.99-2-.53h0Z"/>
      <g>
        <path class="cls-2" d="M53.75,75.02c-2.48,1.02-3.7,4.19-2.85,6.73s3.46,4.29,6.14,4.46,5.33-1.06,7.21-2.97c1.64-1.66,2.78-4,2.39-6.3-.25-1.45-1.06-2.72-1.85-3.95-.78-1.22-1.57-2.43-2.35-3.65-.27-.41-.54-.84-.95-1.11-.59-.39-1.37-.38-2.04-.14s-1.23.69-1.75,1.16c-2.2,1.97-3.94,4.45-5.04,7.2"/>
        <path class="cls-6" d="M53.01,73.75c-3.53,1.56-4.72,6.13-3.08,9.45,1.84,3.73,6.48,5.21,10.32,4.1s7.77-4.87,7.93-9.22c.08-2.31-1.12-4.28-2.32-6.15-.69-1.06-1.37-2.13-2.06-3.19-.64-.99-1.33-1.87-2.53-2.18-2.51-.64-4.66,1.51-6.17,3.22-1.65,1.87-2.91,3.97-3.86,6.27-.3.73.33,1.61,1.02,1.8.84.23,1.5-.29,1.8-1.02.59-1.42,1.38-2.79,2.31-4.01.86-1.14,2.05-2.64,3.37-3.27.56-.27.9-.22,1.27.27.6.8,1.09,1.69,1.63,2.53.93,1.44,2.15,2.95,2.53,4.67.65,2.97-1.99,5.77-4.44,6.98s-5.66.98-7.56-1.2c-1.8-2.06-1.23-5.39,1.32-6.52.72-.32.89-1.38.53-2-.44-.75-1.28-.85-2-.53h0Z"/>
      </g>
      <g>
        <path class="cls-4" d="M49.69,39.37c-1.87-1.93-5.26-1.89-7.31-.16s-2.7,4.8-1.88,7.35,2.96,4.56,5.43,5.6c2.15.91,4.75,1.1,6.74-.11,1.25-.76,2.14-1.99,2.99-3.18.84-1.18,1.68-2.36,2.52-3.54.28-.4.58-.81.67-1.29.14-.69-.15-1.42-.62-1.94s-1.1-.89-1.73-1.2c-2.65-1.31-5.6-2.01-8.55-2.03"/>
        <path class="cls-6" d="M50.72,38.34c-2.88-2.81-7.79-2.34-10.26.78s-2.21,7.64.16,10.76,7.08,5.39,11.12,4.18c2.14-.64,3.56-2.21,4.84-3.96.68-.94,1.35-1.89,2.02-2.84s1.58-1.97,1.71-3.21c.29-2.79-2.44-4.2-4.62-5.1-2.45-1.01-5.1-1.5-7.74-1.54-1.88-.02-1.89,2.9,0,2.93,1.74.02,3.44.27,5.11.77.82.25,1.63.54,2.4.91.62.3,1.45.62,1.81,1.25s-.23,1.13-.58,1.63c-.56.79-1.12,1.57-1.68,2.36-.89,1.24-1.76,2.72-3.09,3.54-2.48,1.52-5.92.26-7.91-1.53s-3.05-4.57-1.98-7.16,4.5-3.76,6.61-1.7c1.35,1.32,3.42-.75,2.07-2.07h0Z"/>
      </g>
    </g>
  </g>
</svg>