<?xml version="1.0" encoding="UTF-8"?>
<svg id="Layer_2" data-name="Layer 2" xmlns="http://www.w3.org/2000/svg" viewBox="0 0 79.98 145.09">
  <defs>
    <style>
      .cls-1 {
        fill: #ffc58a;
      }

      .cls-1, .cls-2, .cls-3, .cls-4 {
        stroke-width: 0px;
      }

      .cls-2 {
        fill: #f0bbd3;
      }

      .cls-3 {
        fill: #271c15;
      }

      .cls-4 {
        fill: #875c42;
      }
    </style>
  </defs>
  <g id="Layer_1-2" data-name="Layer 1">
    <g>
      <path class="cls-1" d="M34.48,113.64c.21,6.41.41,12.83.62,19.24.13,4.13.21,9.58,5.32,10.58,4.83.94,7.61-3.48,7.89-7.72.46-7.01-.53-14.43-.81-21.45-.26-6.47-10.36-6.51-10.1,0,.15,3.63.29,7.26.44,10.88.07,1.65.13,3.3.2,4.95.03.82-.47,5.14,1.17,4.11l3.89-.51-.72-.16,3.02,2.32c-1.28-1.87-.36-8.17-.43-10.33-.13-3.97-.26-7.94-.38-11.91-.21-6.48-10.31-6.51-10.1,0h0Z"/>
      <path class="cls-3" d="M74.5,25.13C70.33,10.16,59.93,2.23,44.51.83c-2.49-.23-4.99-.34-8.22-.55.12-.09.25-.18.37-.28-2.74,1.76-5.12.9-6.2.31.61.39,1.27.74,1.99,1.08-6.07.85-10.12,3.88-14.93,5.04h-.01s-.1.08-.1.08c-.4.46-.79.92-1.19,1.38l.02.04C4.77,17.18,1.97,30.13.94,43.82c-.36,4.79-.63,9.59-.94,14.39v1.96c.65,14.76,1.78,29.48,3.94,44.11.59,3.97.92,8.31,6.13,9.34,6.15.16,12.3.46,18.45.42,2.57-.01,3.44.69,3.45,3.34.02,5.66.41,11.31.66,16.96.5,10.85.5,10.72,11.72,10.75,4.3.01,6.06-1.67,5.95-5.92-.19-7.15.1-14.33-.33-21.46-.21-3.45.97-4.22,4.02-4.28,4.83-.09,9.58-.85,14.28-2.04,4.02-1.01,6.49-3.36,7.35-7.26,5.83-26.42,6.16-52.82-1.12-79ZM5.99,28.61C10.66,10.98,27.44,1.81,43.69,3.57c17.34,1.89,25.67,10.07,29.43,26.95.93,4.21-.35,5.76-4.75,5.76-4.67.03-7.65-3.01-10.36-6.11-6.71-7.66-12.36-7.7-18.81.28-1.77,2.19-3.32,4.56-4.89,6.9-3.27,4.9-7.4,5.86-12.91,3.74-5.95-2.27-8.85-8.63-14.95-10.55-1.03-.33-.7-1.02-.46-1.93ZM39.8,142.41c-3.81.11-4.84-1.21-4.84-4.79-.02-6.45-.27-12.92-.8-19.35-.29-3.41.88-4.13,4.07-4.12,8.63.01,8.63-.14,8.97,8.55.06,1.66.15,3.31.23,4.97h.08c0,2.32-.04,4.64.01,6.96.14,7.78.15,7.55-7.72,7.78ZM73.57,101.2c-.95,4.76-3.41,7.17-8.09,8.11-7.07,1.41-14.16,1.92-21.34,1.89-9.82-.05-19.65-.09-29.47,0-4.72.04-7.34-1.69-7.96-6.78-2.57-21-4.87-42.01-2.83-63.21.24-2.52-.63-6.14,1.95-7.14,2.59-1,4.64,1.98,6.48,3.85,2.49,2.54,5.36,4.46,8.65,5.76,5.81,2.31,10.32,1.22,14.15-3.71,2.25-2.88,3.96-6.17,6.2-9.06,4.35-5.61,8.75-5.77,13.74-.72,1.28,1.3,2.47,2.71,3.77,3.99,5.06,4.98,8.6,5.75,15.83,3.23,3.52,21.51,3.11,42.67-1.08,63.8Z"/>
      <path class="cls-2" d="M73.57,101.2c-.95,4.76-3.41,7.17-8.09,8.11-7.07,1.41-14.16,1.92-21.34,1.89-9.82-.05-19.65-.09-29.47,0-4.72.04-7.34-1.69-7.96-6.78-2.57-21-4.87-42.01-2.83-63.21.24-2.52-.63-6.14,1.95-7.14,2.59-1,4.64,1.98,6.48,3.85,2.49,2.54,5.36,4.46,8.65,5.76,5.81,2.31,10.32,1.22,14.15-3.71,2.25-2.88,3.96-6.17,6.2-9.06,4.35-5.61,8.75-5.77,13.74-.72,1.28,1.3,2.47,2.71,3.77,3.99,5.06,4.98,8.6,5.75,15.83,3.23,3.52,21.51,3.11,42.67-1.08,63.8Z"/>
      <path class="cls-4" d="M68.37,36.28c-4.66.03-7.65-3.01-10.36-6.11-6.7-7.66-12.35-7.7-18.81.27-1.77,2.19-3.32,4.56-4.89,6.91-3.27,4.9-7.4,5.85-12.92,3.74-5.94-2.28-8.85-8.63-14.95-10.56-1.03-.33-.7-1.02-.45-1.93C10.66,10.98,27.44,1.81,43.69,3.57c17.33,1.88,25.66,10.07,29.42,26.95.94,4.21-.34,5.76-4.75,5.76Z"/>
    </g>
  </g>
</svg>