<svg width="1280" height="832" viewBox="0 0 1280 832" fill="none" xmlns="http://www.w3.org/2000/svg">
<g opacity="0.2">
<line x1="45.0435" y1="-106.733" x2="45.0434" y2="865.733" stroke="#803219"/>
<line x1="97.6404" y1="-106.733" x2="97.6403" y2="865.733" stroke="#803219"/>
<line x1="458.613" y1="-106.733" x2="458.613" y2="865.733" stroke="#803219"/>
<line x1="511.21" y1="-106.733" x2="511.21" y2="865.733" stroke="#803219"/>
<line x1="872.182" y1="-106.733" x2="872.182" y2="865.733" stroke="#803219"/>
<line x1="924.779" y1="-106.733" x2="924.779" y2="865.733" stroke="#803219"/>
<line x1="45.0435" y1="-106.733" x2="45.0434" y2="865.733" stroke="#803219"/>
<line x1="97.6404" y1="-106.733" x2="97.6403" y2="865.733" stroke="#803219"/>
<line x1="458.613" y1="-106.733" x2="458.613" y2="865.733" stroke="#803219"/>
<line x1="511.21" y1="-106.733" x2="511.21" y2="865.733" stroke="#803219"/>
<line x1="872.182" y1="-106.733" x2="872.182" y2="865.733" stroke="#803219"/>
<line x1="924.779" y1="-106.733" x2="924.779" y2="865.733" stroke="#803219"/>
<line x1="251.829" y1="-106.733" x2="251.829" y2="865.733" stroke="#803219"/>
<line x1="304.425" y1="-106.733" x2="304.425" y2="865.733" stroke="#803219"/>
<line x1="665.398" y1="-106.733" x2="665.398" y2="865.733" stroke="#803219"/>
<line x1="717.995" y1="-106.733" x2="717.995" y2="865.733" stroke="#803219"/>
<line x1="1078.97" y1="-106.733" x2="1078.97" y2="865.733" stroke="#803219"/>
<line x1="1131.56" y1="-106.733" x2="1131.56" y2="865.733" stroke="#803219"/>
<line x1="148.436" y1="-106.733" x2="148.436" y2="865.733" stroke="#803219"/>
<line x1="201.033" y1="-106.733" x2="201.033" y2="865.733" stroke="#803219"/>
<line x1="562.006" y1="-106.733" x2="562.006" y2="865.733" stroke="#803219"/>
<line x1="614.602" y1="-106.733" x2="614.602" y2="865.733" stroke="#803219"/>
<line x1="975.575" y1="-106.733" x2="975.575" y2="865.733" stroke="#803219"/>
<line x1="1028.17" y1="-106.733" x2="1028.17" y2="865.733" stroke="#803219"/>
<line x1="355.221" y1="-106.733" x2="355.221" y2="865.733" stroke="#803219"/>
<line x1="407.818" y1="-106.733" x2="407.818" y2="865.733" stroke="#803219"/>
<line x1="768.79" y1="-106.733" x2="768.79" y2="865.733" stroke="#803219"/>
<line x1="821.387" y1="-106.733" x2="821.387" y2="865.733" stroke="#803219"/>
<line x1="1182.36" y1="-106.733" x2="1182.36" y2="865.733" stroke="#803219"/>
<line x1="1234.96" y1="-106.733" x2="1234.96" y2="865.733" stroke="#803219"/>
<line x1="-71" y1="557.504" x2="1350" y2="557.504" stroke="#803219"/>
<line x1="-71" y1="505.743" x2="1350" y2="505.743" stroke="#803219"/>
<line x1="-71" y1="150.508" x2="1350" y2="150.508" stroke="#803219"/>
<line x1="-71" y1="98.7471" x2="1350" y2="98.7471" stroke="#803219"/>
<line x1="-71" y1="557.504" x2="1350" y2="557.504" stroke="#803219"/>
<line x1="-71" y1="505.743" x2="1350" y2="505.743" stroke="#803219"/>
<line x1="-71" y1="150.508" x2="1350" y2="150.508" stroke="#803219"/>
<line x1="-71" y1="98.7471" x2="1350" y2="98.7471" stroke="#803219"/>
<line x1="-71" y1="761.002" x2="1350" y2="761.002" stroke="#803219"/>
<line x1="-71" y1="709.241" x2="1350" y2="709.241" stroke="#803219"/>
<line x1="-71" y1="354.006" x2="1350" y2="354.006" stroke="#803219"/>
<line x1="-71" y1="302.245" x2="1350" y2="302.245" stroke="#803219"/>
<line x1="-71" y1="810.99" x2="1350" y2="810.99" stroke="#803219"/>
<line x1="-71" y1="455.755" x2="1350" y2="455.755" stroke="#803219"/>
<line x1="-71" y1="403.994" x2="1350" y2="403.994" stroke="#803219"/>
<line x1="-71" y1="48.7589" x2="1350" y2="48.7589" stroke="#803219"/>
<line x1="-71" y1="659.253" x2="1350" y2="659.253" stroke="#803219"/>
<line x1="-71" y1="607.492" x2="1350" y2="607.492" stroke="#803219"/>
<line x1="-71" y1="252.257" x2="1350" y2="252.257" stroke="#803219"/>
<line x1="-71" y1="200.496" x2="1350" y2="200.496" stroke="#803219"/>
</g>
</svg>
